SplineFontDB: 3.2
FontName: NewHeterodoxMono-Bold
FullName: New Heterodox Mono Bold
FamilyName: New Heterodox Mono
Weight: Bold
Copyright: Copyright (C) 2006-2008 Alexey Kryukov <alexios@thessalonica.org.ru>\nCopyright (C) 2021 Hao Chi Kiang <hello@hckiang.com>
Version: 0.0.3
ItalicAngle: 0
UnderlinePosition: -198
UnderlineWidth: 40
Ascent: 762
Descent: 238
InvalidEm: 0
sfntRevision: 0x00020000
LayerCount: 2
Layer: 0 0 "Back" 1
Layer: 1 0 "Fore" 0
XUID: [1021 903 24678482 131528]
StyleMap: 0x0020
FSType: 0
OS2Version: 4
OS2_WeightWidthSlopeOnly: 0
OS2_UseTypoMetrics: 0
CreationTime: 1222415241
ModificationTime: 1645098454
PfmFamily: 49
TTFWeight: 700
TTFWidth: 5
LineGap: 246
VLineGap: 0
Panose: 2 4 5 3 5 5 5 2 3 3
OS2TypoAscent: 820
OS2TypoAOffset: 0
OS2TypoDescent: -304
OS2TypoDOffset: 0
OS2TypoLinegap: 246
OS2WinAscent: 952
OS2WinAOffset: 0
OS2WinDescent: 294
OS2WinDOffset: 0
HheadAscent: 820
HheadAOffset: 0
HheadDescent: -304
HheadDOffset: 0
OS2SubXSize: 640
OS2SubYSize: 660
OS2SubXOff: 0
OS2SubYOff: 480
OS2SupXSize: 640
OS2SupYSize: 660
OS2SupXOff: 0
OS2SupYOff: 0
OS2StrikeYSize: 40
OS2StrikeYPos: 212
OS2FamilyClass: 768
OS2Vendor: 'PfEd'
OS2CodePages: 2000009f.00000000
OS2UnicodeRanges: e0000aff.520120ff.02000000.00000000
MarkAttachClasses: 1
DEI: 91125
TtTable: prep
PUSHW_1
 511
SCANCTRL
PUSHB_1
 1
SCANTYPE
SVTCA[y-axis]
MPPEM
PUSHB_1
 8
LT
IF
PUSHB_2
 1
 1
INSTCTRL
EIF
PUSHB_2
 70
 6
CALL
IF
POP
PUSHB_1
 16
EIF
MPPEM
PUSHB_1
 20
GT
IF
POP
PUSHB_1
 128
EIF
SCVTCI
PUSHB_1
 6
CALL
NOT
IF
SVTCA[y-axis]
PUSHB_1
 7
DUP
RCVT
PUSHB_1
 3
CALL
WCVTP
PUSHB_1
 8
DUP
RCVT
PUSHB_3
 7
 143
 2
CALL
PUSHB_1
 3
CALL
WCVTP
PUSHB_1
 9
DUP
RCVT
PUSHB_3
 8
 94
 2
CALL
PUSHB_1
 3
CALL
WCVTP
PUSHB_1
 10
DUP
RCVT
PUSHB_3
 9
 56
 2
CALL
PUSHB_1
 3
CALL
WCVTP
PUSHB_1
 11
DUP
RCVT
PUSHB_3
 10
 50
 2
CALL
PUSHB_1
 3
CALL
WCVTP
SVTCA[x-axis]
PUSHB_1
 12
DUP
RCVT
PUSHB_1
 3
CALL
WCVTP
PUSHB_1
 13
DUP
RCVT
PUSHB_3
 12
 77
 2
CALL
PUSHB_2
 3
 70
SROUND
CALL
WCVTP
PUSHB_1
 14
DUP
RCVT

StartChar: .notdef
Encoding: 1114112 -1 0
Width: 500
Flags: W
HStem: 0 38<99.5371 400.463> 676 38<99.5371 400.463>
VStem: 48 46<41.368 672.632> 406 46<41.368 672.632>
LayerCount: 2
Fore
SplineSet
406 85 m 2
 406 629 l 2
 406 660 393 676 366 676 c 2
 134 676 l 2
 107 676 94 660 94 629 c 2
 94 85 l 2
 94 54 107 38 134 38 c 2
 366 38 l 2
 393 38 406 54 406 85 c 2
48 0 m 1
 48 714 l 1
 452 714 l 1
 452 0 l 1
 48 0 l 1
EndSplineSet
Validated: 1
EndChar

StartChar: exclam
Encoding: 33 33 4
Width: 566
GlyphClass: 2
Flags: W
HStem: -12 180<211.411 334.589> 694 20G<254 314>
VStem: 183 180<16.4106 139.589> 194 180<534.616 695.792> 257 30<209 256>
LayerCount: 2
Fore
SplineSet
287 209 m 1xc8
 257 209 l 1xc8
 237 397 l 2
 234 421 227 462 214 517 c 0
 201 572 194 615 194 646 c 0
 194 691 224 714 284 714 c 256
 344 714 374 691 374 646 c 0xd0
 374 615 364 572 347 517 c 0
 330 462 319 421 315 397 c 2
 287 209 l 1xc8
273 -12 m 260
 247 -12 226 -5 208 13 c 4
 190 31 183 52 183 78 c 260
 183 104 190 125 208 143 c 4
 226 161 247 168 273 168 c 260
 299 168 320 161 338 143 c 4
 356 125 363 104 363 78 c 260xe0
 363 52 356 31 338 13 c 4
 320 -5 299 -12 273 -12 c 260
EndSplineSet
Validated: 1
EndChar

StartChar: numbersign
Encoding: 35 35 6
Width: 566
GlyphClass: 2
Flags: W
HStem: 0 21G<111 175.842 290 353.951> 183 62<59 138 209 317 387 507> 437 62<58 176 246 354 425 508>
DStem2: 111 0 173 0 0.146077 0.989273<9.05677 184.981 256.687 441.807 513.368 691.417> 290 0 351 0 0.146077 0.989273<8.91069 184.981 256.541 441.661 513.368 691.417>
LayerCount: 2
Fore
SplineSet
212 684 m 1
 273 684 l 1
 246 499 l 1
 364 499 l 1
 391 684 l 1
 452 684 l 1
 425 499 l 1
 508 499 l 1
 508 437 l 1
 416 437 l 1
 387 245 l 1
 507 245 l 1
 507 183 l 1
 378 183 l 1
 351 0 l 1
 290 0 l 1
 317 183 l 1
 199 183 l 1
 173 0 l 1
 111 0 l 1
 138 183 l 1
 59 183 l 1
 59 245 l 1
 147 245 l 1
 176 437 l 1
 58 437 l 1
 58 499 l 1
 185 499 l 1
 212 684 l 1
237 437 m 1
 209 245 l 1
 326 245 l 1
 354 437 l 1
 237 437 l 1
EndSplineSet
Validated: 1
EndChar

StartChar: dollar
Encoding: 36 36 7
Width: 566
GlyphClass: 2
Flags: W
HStem: -16 46<181.886 236 278 312> -8 45<354 398.577> 647 44<194.991 236> 655 46<278 312 354 399.822>
VStem: 52 84<85.4841 189.5> 88 62<476.709 603.054> 236 42<-84 -15 36 308 445 647 699 759> 312 42<-84 -15 37 278 421 649 700 759> 446 68<528.478 608.307> 454 58<94.7048 231.101>
LayerCount: 2
Fore
SplineSet
512 187 m 0x1340
 512 83 445 12 354 -8 c 1x5340
 354 -84 l 1
 312 -84 l 1
 312 -15 l 1
 307 -16 303 -16 299 -16 c 0
 292 -16 284 -16 278 -15 c 1
 278 -84 l 1
 236 -84 l 1
 236 -10 l 1
 136 5 52 62 52 168 c 0
 52 211 81 246 135 246 c 0
 162 246 185 229 185 203 c 0
 185 192 183 183 178 175 c 0
 172 164 161 153 148 140 c 0
 140 132 136 123 136 109 c 0x8b40
 136 64.2502893315 188.603244493 43.4057430479 236 36 c 1
 236 324 l 1
 231 326 l 1
 136 363.978021978 88 427.274725275 88 518 c 0
 88 612.435814398 152.871181861 671.949645843 236 691 c 1xa7
 236 759 l 1
 278 759 l 1
 278 699 l 1
 290 701 298 701 299 701 c 0
 303 701 307 701 312 700 c 1
 312 759 l 1
 354 759 l 1
 354 695 l 1
 437.632814127 680.241268095 514 622.454671886 514 534 c 0
 514 478.294736842 496 436 447 436 c 0
 422 436 400 451.105263158 400 477 c 0
 400 499 413 517 426 530 c 0
 439 543 446 550 446 573 c 0x1780
 446 615.247507463 397.800974208 640.239805158 354 649 c 1
 354 409 l 5
 375 398 l 6
 458.252656495 354.391465645 512 293.758936378 512 187 c 0x1340
278 308 m 1
 278 31 l 1
 284 30 292 30 299 30 c 0x83
 303 30 307 30 312 31 c 1
 312 294 l 1
 278 308 l 1
278 434 m 5
 312 421 l 5
 312 654 l 1
 307 655 303 655 299 655 c 0x13
 298 655 290 655 278 653 c 1
 278 434 l 5
236 647 m 1x27
 186 633 150 592 150 534 c 0
 150 481.037037037 181 461.481481481 231 446 c 5
 236 445 l 5
 236 647 l 1x27
354 37 m 1x4340
 410 51 454 98 454 162 c 0
 454 226.983050847 424 249.86440678 372 270 c 2
 354 278 l 1
 354 37 l 1x4340
EndSplineSet
Validated: 1
EndChar

StartChar: percent
Encoding: 37 37 8
Width: 566
GlyphClass: 3
LigCaretCntFixed: 1
Flags: W
HStem: -16 26<401.463 449.53> 317 28<400.93 450.096> 349 28<111.93 161.096> 686 26<114.372 160.53>
VStem: 2 86<414.607 644.547> 187 86<415.795 644.547> 291 86<49.2147 277.948> 476 86<49.2147 277.948>
DStem2: 2 -18 63 -18 0.580588 0.814197<35.4159 873.253>
LayerCount: 2
Fore
SplineSet
136 377 m 0
 170 377 187 429 187 531 c 256
 187 635 170 686 136 686 c 0
 104 686 88 635 88 531 c 256
 88 429 104 377 136 377 c 0
136 349 m 256
 47 349 2 409 2 529 c 256
 2 651 47 712 136 712 c 256
 227 712 273 651 273 529 c 256
 273 409 227 349 136 349 c 256
509 693 m 1
 564 685 l 1
 63 -18 l 5
 2 -18 l 1
 509 693 l 1
425 10 m 0
 459 10 476 61 476 163 c 256
 476 266 459 317 425 317 c 0
 393 317 377 266 377 163 c 256
 377 61 393 10 425 10 c 0
425 -16 m 256
 336 -16 291 43 291 163 c 256
 291 284 336 345 425 345 c 256
 516 345 562 284 562 163 c 256
 562 43 516 -16 425 -16 c 256
EndSplineSet
Validated: 1
LCarets2: 2 320 540
EndChar

StartChar: ampersand
Encoding: 38 38 9
Width: 566
GlyphClass: 2
Flags: W
HStem: -18 58<470.142 522.758> -18 44<184.503 301.974> 363 42<402 448.763 516.461 561> 657 46<248.948 325.827>
VStem: 11 128<76.2804 226.319> 168 61<480.158 635.29> 340 38<491.044 641.792>
DStem2: 275 439 217 367 0.489199 -0.872172<-96.8314 13.4013 75.4988 296.295 311.633 339.258 369.326 457.809> 217 367 230 327 0.854199 0.519947<-96.11 -3.86246> 410 175 428 140 0.394062 0.919084<0 151.102>
LayerCount: 2
Fore
SplineSet
11 145 m 0x7e
 11 214 47 283 194 353 c 2
 217 367 l 1
 206 387 l 2
 181 443 168 490 168 531 c 0
 168 610 201 703 286 703 c 0
 362 703 378 642 378 583 c 0
 378 495 340 451 295 399 c 1
 410 175 l 1
 416 188 426 213 441 250 c 4
 452 281 456 307 456 325 c 0
 456 337 454 345 449 352 c 0
 444 359 436 363 430 363 c 2
 402 363 l 1
 402 405 l 1
 561 405 l 1
 561 363 l 1
 533 363 l 2
 527 363 516 345 500 309 c 1
 463 213 438 157 428 140 c 1
 443 106 457 80 468 64 c 0
 479 48 489 40 500 40 c 0
 519 40 534 51 545 74 c 1
 559 67 l 1
 537 11 511 -18 480 -18 c 0xbe
 447 -18 415 13 381 75 c 1
 332 13 280 -18 223 -18 c 0
 82 -18 11 36 11 145 c 0x7e
139 155 m 0
 139 95 175 26 241 26 c 0x7e
 279 26 317 50 354 98 c 1
 343 120 l 1
 235 330 l 1
 230 327 l 2
 161 287 139 225 139 155 c 0
229 557 m 0
 229 522 245 482 275 439 c 2
 281 427 l 1
 310 463 340 510 340 581 c 0
 340 618 325 657 289 657 c 0
 244 657 229 606 229 557 c 0
EndSplineSet
Validated: 1
EndChar

StartChar: quotesingle
Encoding: 39 39 10
Width: 566
GlyphClass: 2
Flags: W
HStem: 710 20G<264.2 303.938>
VStem: 224 118<503.53 719.401>
LayerCount: 2
Fore
SplineSet
284 730 m 256
 323.875 730 342 709 342 664 c 4
 342 585 305.921568627 448 296 350 c 1
 272 350 l 1
 257.391304348 453 224 561 224 664 c 0
 224 709 244.4 730 284 730 c 256
EndSplineSet
Validated: 1
EndChar

StartChar: parenleft
Encoding: 40 40 11
Width: 566
GlyphClass: 2
Flags: W
HStem: 710 20G<338.5 391.5>
VStem: 170 64<98.0755 433.925>
LayerCount: 2
Fore
SplineSet
170 266 m 256
 170 360 188 448 224 528 c 0
 260 608 308 675 369 730 c 1
 396 706 l 1
 288 583 234 436 234 266 c 256
 234 96 288 -51 396 -174 c 1
 369 -198 l 1
 308 -143 260 -76 224 4 c 0
 188 84 170 172 170 266 c 256
EndSplineSet
Validated: 1
EndChar

StartChar: parenright
Encoding: 41 41 12
Width: 566
GlyphClass: 2
Flags: W
HStem: 710 20G<174.5 227.5>
VStem: 332 64<98.0755 433.925>
LayerCount: 2
Fore
SplineSet
396 266 m 256
 396 172 378 84 342 4 c 0
 306 -76 258 -143 197 -198 c 1
 170 -174 l 1
 278 -51 332 96 332 266 c 256
 332 436 278 583 170 706 c 1
 197 730 l 1
 258 675 306 608 342 528 c 0
 378 448 396 360 396 266 c 256
EndSplineSet
Validated: 1
EndChar

StartChar: asterisk
Encoding: 42 42 13
Width: 566
GlyphClass: 2
Flags: W
HStem: 183 124<112.084 172.638 395.87 453.916> 341 124<108.969 172.638 395.87 455.358>
VStem: 228 110<106.721 193.535 454.465 541.279> 270 31<203.151 287.996 360.004 444.849>
LayerCount: 2
Fore
SplineSet
228 504 m 0xe0
 228 533 251 549 283 549 c 256
 315 549 338 533 338 504 c 0xe0
 338 494 332 479 321 458 c 0
 307 433 301 405 301 375 c 0
 301 365 304 360 309 360 c 0
 312 360 317 362 323 366 c 0
 346 382 365 402 379 422 c 0
 398 451 417 465 434 465 c 0
 458 465 471 435 471 410 c 0
 471 372 447 341 410 341 c 0
 400 341 377 344 358 344 c 0
 342 344 330 342 330 333 c 256
 330 316 395 308 410 307 c 0
 451 298 471 276 471 238 c 0
 471 213 458 183 434 183 c 0
 417 183 398 197 379 226 c 0
 365 246 346 266 323 282 c 0
 317 286 312 288 309 288 c 0
 304 288 301 283 301 273 c 0xd0
 301 243 307 215 321 190 c 0
 332 169 338 154 338 144 c 0
 338 115 315 99 283 99 c 256
 251 99 228 115 228 144 c 0xe0
 228 154 235 169 248 190 c 0
 262 215 270 243 270 273 c 0
 270 283 268 288 262 288 c 0
 259 288 253 286 247 282 c 0
 223 266 204 246 190 226 c 0
 170 197 152 183 133 183 c 0
 109 183 95 213 95 238 c 0
 95 276 115 298 156 307 c 0
 171 308 237 316 237 333 c 256
 237 342 224 344 208 344 c 0
 189 344 166 341 156 341 c 0
 114 341 95 372 95 410 c 0
 95 435 109 465 133 465 c 0
 152 465 170 451 190 422 c 0
 204 402 223 382 247 366 c 0
 253 362 259 360 262 360 c 0
 268 360 270 365 270 375 c 0xd0
 270 405 262 433 248 458 c 0
 235 479 228 494 228 504 c 0xe0
EndSplineSet
Validated: 1
EndChar

StartChar: plus
Encoding: 43 43 14
Width: 566
GlyphClass: 2
Flags: W
HStem: 231 63<44 252 314 522>
VStem: 252 62<5 231 294 531>
LayerCount: 2
Fore
SplineSet
44 231 m 5
 44 294 l 5
 252 294 l 5
 252 531 l 1
 314 531 l 1
 314 294 l 5
 522 294 l 5
 522 231 l 5
 314 231 l 5
 314 5 l 1
 252 5 l 1
 252 231 l 5
 44 231 l 5
EndSplineSet
Validated: 1
EndChar

StartChar: comma
Encoding: 44 44 15
Width: 566
GlyphClass: 2
Flags: W
HStem: 3 162<231.258 289.809>
VStem: 306 48<-71.3066 62.5>
LayerCount: 2
Fore
SplineSet
212 80 m 4
 212 106 218 127 230 142 c 4
 242 157 257 165 272 165 c 4
 299 165 319 153 334 128 c 4
 347 108 354 80 354 45 c 4
 354 -69 297 -153 242 -195 c 5
 229 -174 l 5
 266 -144 306 -93 306 -31 c 4
 306 -18 301 -8 290 -1 c 4
 286 2 277 3 259 3 c 4
 245 3 233 11 225 26 c 4
 217 41 212 60 212 80 c 4
EndSplineSet
Validated: 1
EndChar

StartChar: hyphen
Encoding: 45 45 16
Width: 566
GlyphClass: 2
Flags: W
HStem: 236 52<53 513>
LayerCount: 2
Fore
SplineSet
53 236 m 5
 53 288 l 5
 513 288 l 5
 513 236 l 5
 53 236 l 5
EndSplineSet
Validated: 1
EndChar

StartChar: period
Encoding: 46 46 17
Width: 566
GlyphClass: 2
Flags: W
HStem: -12 180<221.411 344.589>
VStem: 193 180<16.4106 139.589>
LayerCount: 2
Fore
SplineSet
283 -12 m 260
 257 -12 236 -5 218 13 c 4
 200 31 193 52 193 78 c 260
 193 104 200 125 218 143 c 4
 236 161 257 168 283 168 c 260
 309 168 330 161 348 143 c 4
 366 125 373 104 373 78 c 260
 373 52 366 31 348 13 c 4
 330 -5 309 -12 283 -12 c 260
EndSplineSet
Validated: 1
EndChar

StartChar: slash
Encoding: 47 47 18
Width: 566
GlyphClass: 2
Flags: W
HStem: 710 20G<385.987 453>
DStem2: 113 -198 174 -198 0.287916 0.957656<17.5629 969.033>
LayerCount: 2
Fore
SplineSet
174 -198 m 5
 113 -198 l 1
 392 730 l 1
 453 730 l 5
 174 -198 l 5
EndSplineSet
Validated: 1
EndChar

StartChar: zero
Encoding: 48 48 19
Width: 566
GlyphClass: 2
Flags: W
HStem: -16 42<218.151 347.43> 291 116<236.932 329.469> 657 43<217.361 346.344>
VStem: 10 128<180.624 503.372> 224 118<304.016 394.798> 428 128<181.813 502.849>
CounterMasks: 1 1c
LayerCount: 2
Fore
SplineSet
282 -16 m 0
 153 -16 64 75 35 170 c 0
 18 224 10 281 10 342 c 0
 10 475 43 584 127 648 c 0
 173 683 225 700 282 700 c 0
 411 700 501 609 531 514 c 0
 548 460 556 403 556 342 c 0
 556 209 523 100 439 36 c 0
 393 1 339 -16 282 -16 c 0
282 26 m 0
 335 26 377 63 393 100 c 0
 422 164 428 251 428 341 c 0
 428 432 422 518 393 583 c 0
 377 620 335 657 282 657 c 0
 229 657 189 620 173 583 c 0
 144 519 138 431 138 341 c 0
 138 251 144 165 173 100 c 0
 189 63 229 26 282 26 c 0
342 350 m 4
 342 316 316 291 282 291 c 4
 249 291 224 318 224 350 c 4
 224 382 249 407 282 407 c 4
 316 407 342 384 342 350 c 4
EndSplineSet
Validated: 1
EndChar

StartChar: one
Encoding: 49 49 20
Width: 566
GlyphClass: 2
Flags: W
HStem: 0 46<70 239.708 344.236 496> 540 46<70 238.74>
VStem: 240 104<48.6062 540> 302 42<637.329 685>
LayerCount: 2
Fore
SplineSet
70 0 m 1xe0
 70 46 l 1
 195 46 l 2
 224 46 240 55 240 71 c 2
 240 540 l 1xe0
 70 540 l 1
 70 586 l 1
 169 586 l 2
 206 586 237 596 260 615 c 0
 283 634 296 658 302 685 c 1
 344 685 l 1xd0
 344 72 l 2
 344 55 353 46 370 46 c 2
 496 46 l 1
 496 0 l 1
 70 0 l 1xe0
EndSplineSet
Validated: 1
EndChar

StartChar: two
Encoding: 50 50 21
Width: 566
GlyphClass: 2
Flags: W
HStem: 0 119<159.007 449.377> 366 154<113.714 192.029> 653 47<165.065 304.286>
VStem: 54 54<479 594.063> 69 90<0 136> 364 128<414.551 589.237> 475 29<160.653 216>
DStem2: 197 240 235 207 0.820127 0.572182<-90.1433 170.903>
LayerCount: 2
Fore
SplineSet
486 0 m 1xea
 69 0 l 1xea
 69 119 87 158 197 240 c 2
 280 299 l 2
 336 354 364 417 364 491 c 0
 364 543 352 583 329 611 c 0
 306 639 272 653 228 653 c 0
 174 653 108 612 108 563 c 0xf4
 108 539 123 524 151 520 c 0
 173 515 189 505 199 489 c 0
 209 473 216 454 216 431 c 0
 216 412 211 398 201 385 c 0
 191 372 176 366 159 366 c 0xe8
 129 366 105 378 85 403 c 0
 65 428 54 459 54 499 c 0
 54 619 140 700 268 700 c 4
 417 700 492 631 492 491 c 0xf4
 492 413 428 347 321 267 c 2
 235 207 l 2
 189 176 159 155 159 136 c 0
 159 125 168 119 190 119 c 2
 383 119 l 2
 410 119 430 123 441 132 c 0
 463 150 469 184 475 216 c 1
 504 216 l 1
 486 0 l 1xea
EndSplineSet
Validated: 1
EndChar

StartChar: three
Encoding: 51 51 22
Width: 566
GlyphClass: 2
Flags: W
HStem: -16 46<122.624 311.131> 54 160<121.808 179.823> 315 72<133.219 237.908> 340 36<195.688 303.411> 654 46<166.428 299.359>
VStem: 43 78<36.7206 148> 63 88<534 627.801> 345 138<453.394 603.658> 370 153<99.7609 258.173>
LayerCount: 2
Fore
SplineSet
143 475 m 0xdb
 100 475 63 514 63 554 c 0
 63 651 150 700 264 700 c 0
 385 700 483 637 483 525 c 0xdb
 483 484 467 450 432 422 c 0
 397 394 359 377 317 370 c 1
 317 359 l 1
 366 353 412 334 457 302 c 0
 502 270 523 232 523 185 c 0
 523 124 497 76 444 39 c 0
 391 2 327 -16 250 -16 c 0
 122 -16 43 25 43 124 c 0
 43 172 77 214 129 214 c 0
 174 214 200 181 200 130 c 0
 200 92 186 54 157 54 c 0
 134 54 121 53 121 49 c 0
 121 37 160 30 239 30 c 0
 300 30 344 69 359 113 c 0
 366 136 370 160 370 188 c 0
 370 239 358 277 337 302 c 0
 316 327 290 340 259 340 c 0xdc80
 229 340 188 315 166 315 c 0
 147 315 131 327 131 351 c 0
 131 375 143 387 165 387 c 0xec80
 175 387 190 385 208 380 c 0
 220 378 236 376 257 376 c 0
 286 376 307 390 322 418 c 0
 337 446 345 477 345 513 c 0
 345 587 311 654 244 654 c 0
 194 654 151 639 151 598 c 0
 151 585 159 574 174 566 c 0
 195 556 203 541 203 520 c 0
 203 490 179 475 143 475 c 0xdb
EndSplineSet
Validated: 1
EndChar

StartChar: four
Encoding: 52 52 23
Width: 566
GlyphClass: 2
Flags: W
HStem: 0 46<167 304.959 410.023 524> 190 46<104 305 410 522>
VStem: 305 105<47.9032 190 236 553>
DStem2: 43 232 104 236 0.536402 0.843963<36.0963 411.449>
LayerCount: 2
Fore
SplineSet
305 553 m 1
 104 236 l 1
 305 236 l 1
 305 553 l 1
167 0 m 1
 167 46 l 1
 261 46 l 2
 291 46 305 53 305 69 c 2
 305 190 l 1
 43 190 l 1
 43 232 l 1
 336 693 l 5
 410 693 l 1
 410 236 l 1
 522 236 l 1
 522 190 l 1
 410 190 l 1
 410 69 l 2
 410 53 418 46 435 46 c 2
 524 46 l 1
 524 0 l 1
 167 0 l 1
EndSplineSet
Validated: 1
EndChar

StartChar: five
Encoding: 53 53 24
Width: 566
GlyphClass: 2
Flags: W
HStem: -16 46<164.996 323.749> 421 47<204.046 333.483> 548 110<162.136 330.925> 680 20G<101.783 139.5 399.5 441>
VStem: 44 104<60.6294 153.267> 98 48<309.288 381.693 401 577> 394 128<133.132 346.645>
LayerCount: 2
Fore
SplineSet
289 468 m 0xf6
 432 468 522 381 522 242 c 4
 522 76 399 -16 247 -16 c 0
 139 -16 44 36 44 131 c 0
 44 187 83 228 140 228 c 0
 181 228 209 207 209 173 c 0
 209 150 198 134 176 123 c 0
 158 114 148 103 148 91 c 0xfa
 148 50 182 30 249 30 c 0
 345 30 394 101 394 241 c 0
 394 361 347 421 252 421 c 0
 204 421 146 381 146 332 c 0
 146 317 136 309 119 309 c 0
 105 309 98 317 98 334 c 2
 98 677 l 1
 127 700 l 1
 152 678 215 658 261 658 c 0
 322 658 376 672 423 700 c 1
 441 682 l 1
 403 613 335 548 246 548 c 0
 205 548 171 558 146 577 c 1
 146 401 l 1
 152 399 l 1
 187 445 233 468 289 468 c 0xf6
EndSplineSet
Validated: 1
EndChar

StartChar: six
Encoding: 54 54 25
Width: 566
GlyphClass: 2
Flags: W
HStem: -16 46<234.303 344.728> 385 48<247.922 352.858> 654 46<259.24 389.552>
VStem: 46 140<161.682 399.328> 46 128<341 481.704> 396 128<124.127 322.044> 396 84<554 641.513>
LayerCount: 2
Fore
SplineSet
180 338 m 1xea
 201 383 258 433 317 433 c 0
 444 433 524 346 524 222 c 0
 524 99 426 -16 290 -16 c 0
 118 -16 46 141 46 314 c 0xf4
 46 528 133 700 321 700 c 0
 407 700 480 655 480 573 c 0
 480 535 449 501 403 501 c 0
 373 501 352 515 352 544 c 0
 352 563 368 578 381 588 c 0
 391 596 396 605 396 615 c 0
 396 644 356 654 319 654 c 4
 214 654 174 509 174 384 c 2
 174 341 l 1
 180 338 l 1xea
186 208 m 0
 186 119 208 30 289 30 c 0
 369 30 396 124 396 208 c 0
 396 295 377 385 300 385 c 0
 224 385 186 297 186 208 c 0
EndSplineSet
Validated: 1
EndChar

StartChar: seven
Encoding: 55 55 26
Width: 566
GlyphClass: 2
Flags: W
HStem: -16 21G<244 305.5> 462 21G<54 87.1509> 565 119<108.38 449.991>
VStem: 54 29<462 495.727> 168 171<31.5686 236.5> 450 62<499.358 563.985>
DStem2: 305 323 385 346 0.654152 0.756363<-12.0378 241.204>
LayerCount: 2
Fore
SplineSet
278 -16 m 0
 210 -16 168 20 168 77 c 0
 168 179 256 254 305 323 c 1
 401 434 l 2
 433 476 450 512 450 543 c 0
 450 558 438 565 415 565 c 2
 183 565 l 2
 125 565 102 549 94 515 c 1
 83 462 l 1
 54 462 l 1
 72 684 l 1
 512 684 l 1
 512 559 504 511 457 429 c 2
 385 346 l 1
 350 297 339 253 339 220 c 0
 339 192 340 169 345 148 c 2
 352 113 l 2
 358 87 360 65 360 45 c 0
 360 4 333 -16 278 -16 c 0
EndSplineSet
Validated: 1
EndChar

StartChar: eight
Encoding: 56 56 27
Width: 566
GlyphClass: 2
Flags: W
HStem: -16 46<188.083 370.769> 654 46<190.638 354.533>
VStem: 26 100<88.8096 237.203> 36 108<487.904 586.792> 409 88<474.852 600.719> 427 113<121.728 261.5>
DStem2: 338 404 335 263 0.927694 -0.37334<-102.248 14.2184 27.8535 127.823>
LayerCount: 2
Fore
SplineSet
276 654 m 0xd8
 239 654 207 645 182 627 c 0
 157 607 144 580 144 547 c 0
 144 523 149 503 162 489 c 0
 175 475 194 462 220 452 c 2
 338 404 l 1
 386 430 409 471 409 529 c 0
 409 566 396 595 371 620 c 0
 346 643 312 654 276 654 c 0xd8
497 540 m 0
 497 468 426 421 364 398 c 1
 364 394 l 1
 384 386 l 1
 488 352 540 298 540 225 c 0
 540 157 517 99 469 53 c 0
 421 7 354 -16 269 -16 c 0
 142 -16 26 48 26 161 c 0xe4
 26 207 42 242 76 268 c 0
 110 294 147 310 186 319 c 1
 186 323 l 1
 177 326 l 1
 99 353 36 411 36 503 c 0
 36 559 60 606 108 644 c 0
 156 682 212 700 273 700 c 0
 345 700 398 684 437 653 c 0
 476 622 497 583 497 540 c 0
280 30 m 0
 315 30 343 36 367 49 c 0
 391 64 406 81 414 98 c 0
 422 115 427 133 427 150 c 0
 427 183 420 207 404 223 c 0
 388 239 366 252 335 263 c 2
 211 313 l 1
 154 292 126 244 126 168 c 0
 126 120 142 84 173 61 c 0
 204 40 239 30 280 30 c 0
EndSplineSet
Validated: 1
EndChar

StartChar: nine
Encoding: 57 57 28
Width: 566
GlyphClass: 2
Flags: W
HStem: -16 42<185.479 308.067> 250 48<213.142 318.078> 654 46<225.054 333.896>
VStem: 42 128<361.623 561.326> 86 84<42.1855 130> 380 140<283.883 537.143> 392 128<201.125 342>
LayerCount: 2
Fore
SplineSet
386 345 m 1xea
 365 300 308 250 249 250 c 0
 122 250 42 338 42 462 c 4
 42 585 140 700 276 700 c 0
 439 700 520 590 520 370 c 0xf4
 520 242 491 145 434 78 c 0
 380 15 318 -16 245 -16 c 0
 159 -16 86 29 86 111 c 0
 86 149 117 182 163 182 c 0
 193 182 214 167 214 138 c 0
 214 119 198 105 185 95 c 0
 175 87 170 78 170 68 c 0
 170 57 177 47 190 38 c 0
 203 29 221 26 247 26 c 0
 297 26 334 57 360 116 c 0
 370 141 378 170 384 206 c 0
 390 242 392 274 392 299 c 2
 392 342 l 1
 386 345 l 1xea
380 476 m 0
 380 565 358 654 277 654 c 0
 224 654 188 601 178 557 c 0
 172 532 170 505 170 476 c 0
 170 389 189 298 266 298 c 0
 342 298 380 387 380 476 c 0
EndSplineSet
Validated: 1
EndChar

StartChar: semicolon
Encoding: 894 894 30
AltUni2: 00003b.ffffffff.0
Width: 566
GlyphClass: 2
Flags: W
HStem: 32 162<221.159 303.759> 331 182<223.169 342.831>
VStem: 198 175<54.9801 152.656 360.762 484.125> 327 46<-36.1693 107.5>
LayerCount: 2
Fore
SplineSet
373 421 m 260xe0
 373 368 335 331 283 331 c 260
 231 331 193 368 193 421 c 260
 193 475 229 513 283 513 c 260
 337 513 373 475 373 421 c 260xe0
261 32 m 4
 222 32 198 70 198 109 c 4
 198 155 226 194 270 194 c 4
 339 194 373 141 373 74 c 4xe0
 373 -65 295 -123 221 -168 c 5
 201 -150 l 5
 258 -121 327 -68 327 -2 c 4xd0
 327 11 319 21 304 28 c 4
 299 31 285 32 261 32 c 4
EndSplineSet
Validated: 1
Colour: ffff
EndChar

StartChar: less
Encoding: 60 60 31
Width: 566
GlyphClass: 2
Flags: W
HStem: -1 21G<422.032 465.31>
DStem2: 28 295 114 275 0.862244 0.506493<64.0231 492.1> 114 275 28 251 0.861727 -0.507372<0 428.584>
LayerCount: 2
Fore
SplineSet
456 -1 m 5
 28 251 l 5
 28 295 l 5
 457 547 l 5
 483 492 l 5
 114 275 l 5
 483 57 l 5
 456 -1 l 5
EndSplineSet
Validated: 1
EndChar

StartChar: equal
Encoding: 61 61 32
Width: 566
GlyphClass: 2
Flags: W
HStem: 142 63<53 512> 339 63<53 513>
LayerCount: 2
Fore
SplineSet
53 339 m 1
 53 402 l 5
 513 402 l 5
 513 339 l 1
 53 339 l 1
53 142 m 1
 53 205 l 1
 512 205 l 1
 512 142 l 1
 53 142 l 1
EndSplineSet
Validated: 1
EndChar

StartChar: greater
Encoding: 62 62 33
Width: 566
GlyphClass: 2
Flags: W
HStem: -1 21G<100.63 145.024>
DStem2: 110 547 83 494 0.862607 -0.505875<3.52097 437.428> 83 53 111 -1 0.86209 0.506755<0 434.415>
LayerCount: 2
Fore
SplineSet
111 -1 m 1
 83 53 l 1
 457 274 l 1
 83 494 l 1
 110 547 l 1
 538 296 l 1
 538 250 l 1
 111 -1 l 1
EndSplineSet
Validated: 1
EndChar

StartChar: question
Encoding: 63 63 34
Width: 566
GlyphClass: 2
Flags: W
HStem: -12 180<218.411 341.589> 196 38<206.59 326.285> 443 124<117.166 177.528> 656 38<169.865 330.563>
VStem: 56 58<524 606.179> 154 44<242.638 322.328> 190 180<16.4106 139.589> 345 31<252.223 301.222> 382 128<495.177 611.504>
LayerCount: 2
Fore
SplineSet
266 694 m 0xfd80
 334 694 391 682 438 658 c 0
 485 634 510 600 510 557 c 0
 510 538 505 520 494 503 c 0
 483 486 468 471 446 456 c 0
 424 441 404 429 387 420 c 0
 370 411 347 399 316 385 c 0
 238 349 198 312 198 277 c 0
 198 248 222 234 269 234 c 0
 291 234 309 238 323 247 c 0
 337 256 345 268 345 283 c 0
 345 291 343 296 339 301 c 1
 372 307 l 1
 374 297 376 288 376 278 c 0
 376 255 365 235 343 220 c 0
 321 205 295 196 269 196 c 0
 236 196 207 202 186 215 c 0
 165 228 154 246 154 269 c 0
 154 287 159 302 169 315 c 0
 179 328 193 343 214 359 c 2
 309 433 l 2
 333 453 352 470 364 487 c 0
 376 504 382 524 382 546 c 0
 382 578 371 604 348 625 c 0
 325 646 294 656 250 656 c 0
 215 656 182 650 155 637 c 0
 128 624 114 610 114 594 c 0
 114 582 116 573 120 570 c 0
 123 568 126 567 129 567 c 0
 134 567 138 567 140 568 c 0
 145 570 149 571 157 571 c 0
 168 571 177 565 184 554 c 0
 191 543 192 529 192 513 c 0
 192 493 188 476 178 463 c 0
 168 450 153 443 133 443 c 0
 112 443 94 452 79 469 c 0
 64 486 56 509 56 539 c 0
 56 583 79 619 122 649 c 0
 165 679 213 694 266 694 c 0xfd80
280 -12 m 256
 254 -12 233 -5 215 13 c 0
 197 31 190 52 190 78 c 256xfa80
 190 104 197 125 215 143 c 0
 233 161 254 168 280 168 c 256
 306 168 327 161 345 143 c 0xf980
 363 125 370 104 370 78 c 256xfa80
 370 52 363 31 345 13 c 0
 327 -5 306 -12 280 -12 c 256
EndSplineSet
Validated: 1
EndChar

StartChar: at
Encoding: 64 64 35
Width: 566
GlyphClass: 2
Flags: W
HStem: -27 47<197.522 361.852> 124 39<204.5 262.175 373.205 433.392> 543 41<275.013 323.712> 691 46<209.768 367.214>
VStem: 21 66<174.372 507.683> 152 65<165.28 419.059> 480 66<230.369 527.003>
DStem2: 318 335 372 258 0.180839 0.983513<-107.306 122.373 188.098 236.754>
LayerCount: 2
Fore
SplineSet
216 124 m 0
 193 124 176 136 166 158 c 0
 156 180 152 211 152 253 c 0
 152 295 156 337 164 380 c 0
 189 516 234 584 300 584 c 0
 327 584 344 562 351 520 c 1
 352 520 l 1
 360 568 l 1
 429 568 l 1
 372 258 l 2
 369 244 368 231 368 216 c 0
 368 194 375 163 389 163 c 0
 450 163 480 240 480 396 c 0
 480 555 424 691 279 691 c 0
 138 691 87 497 87 338 c 0
 87 168 129 20 286 20 c 0
 326 20 367 37 409 70 c 1
 421 40 l 1
 379 -5 329 -27 274 -27 c 0
 91 -27 21 146 21 353 c 0
 21 544 114 737 285 737 c 0
 461 737 546 560 546 375 c 0
 546 208 489 124 376 124 c 0
 358 124 342 132 329 147 c 0
 316 162 309 182 307 208 c 1
 306 208 l 1
 298 189 286 169 270 151 c 0
 254 133 236 124 216 124 c 0
227 165 m 0
 247 165 266 180 282 211 c 0
 298 245 310 287 318 335 c 2
 333 417 l 2
 335 429 335 442 335 457 c 0
 335 472 334 486 330 503 c 0
 324 529 316 543 304 543 c 0
 269 543 243 474 225 336 c 0
 221 298 218 260 217 225 c 0
 217 185 220 165 227 165 c 0
EndSplineSet
Validated: 1
EndChar

StartChar: A
Encoding: 65 65 36
Width: 566
GlyphClass: 2
Flags: W
HStem: 0 46<27 72.602 138.035 221 325 384.996 493.407 547> 211 49<188 336> 692 20G<250.4 325.318>
DStem2: 88 112 147 115 0.26963 0.962964<-27.426 118.522 169.482 450.937> 320 712 264 531 0.256992 -0.966413<160.529 440.931 491.626 640.734>
AnchorPoint: "Bottom" 272 0 basechar 0
AnchorPoint: "Top" 285 762 basechar 0
LayerCount: 2
Fore
SplineSet
188 260 m 1
 336 260 l 1
 264 531 l 1
 188 260 l 1
360 46 m 2
 379 46 385 54 385 66 c 0
 385 72 383 80 381 87 c 2
 349 211 l 1
 174 211 l 1
 147 115 l 2
 141 95 138 80 138 69 c 0
 138 50 150 46 180 46 c 2
 221 46 l 1
 221 0 l 1
 27 0 l 1
 27 46 l 1
 52 46 l 2
 63 46 71 56 88 112 c 2
 256 712 l 1
 320 712 l 1
 487 84 l 2
 495 53 517 46 529 46 c 2
 547 46 l 1
 547 0 l 1
 325 0 l 1
 325 46 l 1
 360 46 l 2
EndSplineSet
Validated: 1
EndChar

StartChar: B
Encoding: 66 66 37
Width: 566
GlyphClass: 2
Flags: W
HStem: 0 46<14 71.8704 178.316 382.197> 349 46<178 363.477> 666 46<14 71.8704 178.291 359.496>
VStem: 72 106<47.3441 349 395 664.894> 394 128<461.395 629.418> 424 128<92.705 288.39>
AnchorPoint: "Bottom" 302 0 basechar 0
AnchorPoint: "Top" 302 762 basechar 0
LayerCount: 2
Fore
SplineSet
178 349 m 1xf4
 178 72 l 2
 178 55 190 46 214 46 c 2
 317 46 l 2
 389 46 424 96 424 199 c 0
 424 299 389 349 317 349 c 2
 178 349 l 1xf4
14 0 m 1
 14 46 l 1
 48 46 l 2
 65 46 72 54 72 72 c 2
 72 640 l 2
 72 658 65 666 48 666 c 2
 14 666 l 1
 14 712 l 1
 324 712 l 2
 418 712 522 676 522 542 c 0xf8
 522 456 455 393 401 374 c 1
 401 368 l 1
 468 361 552 322 552 193 c 0
 552 41 447 0 336 0 c 2
 14 0 l 1
178 395 m 1
 308 395 l 2
 380 395 394 458 394 538 c 0
 394 575 387 607 371 632 c 0
 355 655 336 666 313 666 c 2
 212 666 l 2
 189 666 178 657 178 640 c 2
 178 395 l 1
EndSplineSet
Validated: 1
EndChar

StartChar: C
Encoding: 67 67 38
Width: 566
GlyphClass: 2
Flags: W
HStem: -18 46<248.401 394.859> 684 46<242.205 381.645> 702 20G<478.714 515>
VStem: 31 128<191.747 525.222> 483 32<441 518.084 689.333 722> 488 47<151.348 262>
LayerCount: 2
Fore
SplineSet
297 730 m 0xd4
 349 730 406 702 437 668 c 0
 448 654 454 640 459 640 c 0
 461 640 463 644 465 648 c 0
 467 652 469 657 471 666 c 2
 483 722 l 1
 515 722 l 1
 515 441 l 1
 483 441 l 1xb8
 460 573 435 684 316 684 c 0
 165 684 159 508 159 362 c 256
 159 208 170 28 327 28 c 0
 427 28 482 140 488 262 c 1
 535 262 l 1
 528 132 471 -18 315 -18 c 0
 126 -18 31 128 31 361 c 0
 31 587 126 730 297 730 c 0xd4
EndSplineSet
Validated: 1
EndChar

StartChar: D
Encoding: 68 68 39
Width: 566
GlyphClass: 2
Flags: W
HStem: 0 46<4 77.853 183.22 332.883> 666 46<4 77.853 183.22 341.496>
VStem: 78 105<47.1694 664.831> 425 128<210.795 510.72>
AnchorPoint: "Bottom" 279 0 basechar 0
AnchorPoint: "Top" 279 762 basechar 0
LayerCount: 2
Fore
SplineSet
4 0 m 1
 4 46 l 1
 53 46 l 2
 70 46 78 54 78 72 c 2
 78 640 l 2
 78 658 70 666 53 666 c 2
 4 666 l 1
 4 712 l 1
 272 712 l 2
 472 712 553 544 553 362 c 0
 553 181 470 0 272 0 c 2
 4 0 l 1
425 362 m 0
 425 500 406 666 266 666 c 2
 219 666 l 2
 195 666 183 658 183 640 c 2
 183 72 l 2
 183 54 195 46 219 46 c 2
 266 46 l 2
 409 46 425 225 425 362 c 0
EndSplineSet
Validated: 1
EndChar

StartChar: E
Encoding: 69 69 40
Width: 566
GlyphClass: 2
Flags: W
HStem: 0 46<7 81.853 187.501 441.39> 337 48<187 335.67> 666 46<7 81.853 187.476 441.797>
VStem: 82 105<50.095 337 385 662.219> 360 34<206 315.623 406.313 515> 491 32<486 585.213>
DStem2: 498 265 530 265 0.0565133 0.998402<-136.235 0>
AnchorPoint: "Bottom" 310 0 basechar 0
AnchorPoint: "Top" 310 762 basechar 0
LayerCount: 2
Fore
SplineSet
7 0 m 1
 7 46 l 1
 57 46 l 2
 74 46 82 54 82 72 c 2
 82 640 l 2
 82 658 74 666 57 666 c 2
 7 666 l 1
 7 712 l 1
 519 712 l 1
 523 486 l 1
 491 486 l 1
 490 504 l 2
 490 515 488 533 483 557 c 0
 478 578 472 597 464 614 c 0
 447 649 420 666 383 666 c 2
 243 666 l 2
 205 666 187 657 187 640 c 2
 187 385 l 1
 308 385 l 2
 320 385 329 389 336 397 c 0
 343 405 350 416 353 430 c 0
 356 444 357 459 358 471 c 0
 359 483 360 498 360 515 c 1
 394 515 l 1
 394 206 l 1
 360 206 l 1
 360 223 360 239 359 251 c 0
 358 263 357 277 353 291 c 0
 349 305 343 318 336 326 c 0
 329 334 320 337 308 337 c 2
 187 337 l 1
 187 72 l 2
 187 55 206 46 244 46 c 2
 384 46 l 2
 420 46 446 66 460 91 c 0
 475 122 491 194 495 236 c 2
 498 265 l 1
 530 265 l 1
 515 0 l 1
 7 0 l 1
EndSplineSet
Validated: 1
EndChar

StartChar: F
Encoding: 70 70 41
Width: 566
GlyphClass: 2
Flags: W
HStem: 0 46<8 86.853 192.475 327> 337 48<192 365.67> 666 46<8 86.853 192.688 444.092>
VStem: 87 105<49.7813 337 385 659.75> 391 34<206 313.506 406.787 515> 494 32<486 582.51>
AnchorPoint: "Bottom" 174 0 basechar 0
AnchorPoint: "Top" 304 762 basechar 0
LayerCount: 2
Fore
SplineSet
8 0 m 1
 8 46 l 1
 62 46 l 2
 79 46 87 54 87 72 c 2
 87 640 l 2
 87 658 79 666 62 666 c 2
 8 666 l 5
 8 712 l 5
 521 712 l 1
 526 486 l 1
 494 486 l 1
 492 504 l 2
 492 515 490 533 485 557 c 0
 480 578 474 597 466 614 c 0
 449 649 423 666 386 666 c 2
 273 666 l 2
 218 666 192 657 192 640 c 2
 192 385 l 1
 338 385 l 2
 350 385 360 389 367 397 c 0
 374 405 380 416 383 430 c 0
 386 444 388 459 389 471 c 0
 390 483 391 498 391 515 c 1
 425 515 l 1
 425 206 l 1
 391 206 l 1
 391 223 390 239 389 251 c 0
 388 263 387 277 383 291 c 0
 379 305 373 318 366 326 c 0
 359 334 350 337 338 337 c 2
 192 337 l 1
 192 72 l 2
 192 55 210 46 246 46 c 2
 327 46 l 1
 327 0 l 1
 8 0 l 1
EndSplineSet
Validated: 1
EndChar

StartChar: G
Encoding: 71 71 42
Width: 566
GlyphClass: 2
Flags: W
HStem: -18 46<215.109 336.477> 313 46<262 381.891 492.29 562> 684 46<229.551 361.117> 702 20G<475.214 516>
VStem: 9 128<189.619 523.266> 382 110<120.419 312.835> 449 43<-12 117.991> 482 34<445 494.164>
AnchorPoint: "Bottom" 288 5 basechar 0
AnchorPoint: "Top" 288 762 basechar 0
LayerCount: 2
Fore
SplineSet
290 730 m 0xea
 336 730 376 705 412 665 c 0
 422 654 429 647 436 647 c 0
 448 647 458 655 463 666 c 2
 482 722 l 1
 516 722 l 1
 516 445 l 1
 482 445 l 1xd9
 457 531 395 684 305 684 c 0
 162 684 137 524 137 356 c 256
 137 192 154 28 286 28 c 0
 350 28 382 110 382 190 c 2
 382 287 l 2
 382 304 378 313 366 313 c 2
 262 313 l 1
 262 359 l 1
 562 359 l 1
 562 313 l 1
 518 313 l 2
 500 313 492 304 492 286 c 2xec
 492 -12 l 1
 449 -12 l 1
 449 82 l 2
 449 106 446 118 441 118 c 256
 431 118 424 103 416 76 c 0
 401 29 354 -18 288 -18 c 0
 103 -18 9 127 9 356 c 0
 9 585 103 730 290 730 c 0xea
EndSplineSet
Validated: 1
EndChar

StartChar: H
Encoding: 72 72 43
Width: 566
GlyphClass: 2
Flags: W
HStem: 0 46<2 75.8357 181.292 249 317 384.708 490.164 564> 348 46<181 385> 666 46<2 75.8357 181.292 249 317 384.708 490.164 564>
VStem: 76 105<47.1694 348 394 664.831> 385 105<47.1694 348 394 664.831>
AnchorPoint: "Bottom" 284 0 basechar 0
AnchorPoint: "Top" 284 762 basechar 0
LayerCount: 2
Fore
SplineSet
2 0 m 1
 2 46 l 1
 50 46 l 2
 67 46 76 54 76 72 c 2
 76 640 l 2
 76 658 67 666 50 666 c 2
 2 666 l 1
 2 712 l 1
 249 712 l 1
 249 666 l 1
 216 666 l 2
 192 666 181 657 181 640 c 2
 181 394 l 1
 385 394 l 1
 385 640 l 2
 385 657 374 666 350 666 c 2
 317 666 l 1
 317 712 l 1
 564 712 l 1
 564 666 l 1
 516 666 l 2
 499 666 490 658 490 640 c 2
 490 72 l 2
 490 54 499 46 516 46 c 2
 564 46 l 1
 564 0 l 1
 317 0 l 1
 317 46 l 1
 350 46 l 2
 374 46 385 55 385 72 c 2
 385 348 l 1
 181 348 l 1
 181 72 l 2
 181 55 192 46 216 46 c 2
 249 46 l 1
 249 0 l 1
 2 0 l 1
EndSplineSet
Validated: 1
EndChar

StartChar: I
Encoding: 73 73 44
Width: 566
GlyphClass: 2
Flags: W
HStem: 0 46<56 229.798 336.202 510> 666 46<66 229.798 336.202 500>
VStem: 230 106<47.007 664.993>
AnchorPoint: "Bottom" 287 0 basechar 0
AnchorPoint: "Top" 286 762 basechar 0
LayerCount: 2
Fore
SplineSet
56 0 m 1
 56 46 l 1
 196 46 l 2
 219 46 230 54 230 72 c 2
 230 640 l 2
 230 658 219 666 196 666 c 2
 66 666 l 1
 66 712 l 1
 500 712 l 1
 500 666 l 1
 370 666 l 2
 347 666 336 658 336 640 c 2
 336 72 l 2
 336 54 347 46 370 46 c 2
 510 46 l 1
 510 0 l 1
 56 0 l 1
EndSplineSet
Validated: 1
EndChar

StartChar: J
Encoding: 74 74 45
Width: 566
GlyphClass: 2
Flags: W
HStem: -18 46<121.574 303.296> 666 46<177 366.798 472.395 560>
VStem: 26 83<47.829 173.5> 367 105<83.5768 664.993>
AnchorPoint: "Bottom" 230 6 basechar 0
AnchorPoint: "Top" 422 762 basechar 0
LayerCount: 2
Fore
SplineSet
136 92 m 0
 117 92 109 86 109 71 c 0
 109 37 173 28 219 28 c 0
 307 28 367 81 367 150 c 2
 367 640 l 2
 367 658 356 666 333 666 c 2
 177 666 l 1
 177 712 l 1
 560 712 l 1
 560 666 l 1
 505 666 l 2
 483 666 472 657 472 639 c 2
 472 191 l 2
 472 37 377 -18 221 -18 c 0
 73 -18 26 36 26 145 c 0
 26 202 59 248 112 248 c 0
 154 248 180 212 180 164 c 0
 180 128 162 92 136 92 c 0
EndSplineSet
Validated: 1
EndChar

StartChar: K
Encoding: 75 75 46
Width: 566
GlyphClass: 2
Flags: W
HStem: 0 46<6 80.9765 186.432 276 319 365.996 479.684 560> 666 46<6 80.9765 186 276 334 355.961 433.472 513>
VStem: 81 105<47.5192 303 385 664.821>
DStem2: 186 385 248 388 0.585783 0.810468<0 38.75 158.37 307.334> 318 485 248 388 0.353948 -0.935265<65.9444 410.386>
AnchorPoint: "Bottom" 298 0 basechar 0
AnchorPoint: "Top" 304 762 basechar 0
LayerCount: 2
Fore
SplineSet
6 0 m 1
 6 46 l 1
 56 46 l 2
 73 46 81 53 81 69 c 2
 81 643 l 2
 81 659 73 666 56 666 c 2
 6 666 l 1
 6 712 l 1
 276 712 l 1
 276 666 l 1
 223 666 l 2
 198 666 186 659 186 646 c 2
 186 385 l 1
 328 581 l 2
 347 608 356 628 356 642 c 0
 356 658 350 666 340 666 c 2
 334 666 l 1
 334 712 l 1
 513 712 l 1
 513 666 l 1
 476 666 l 2
 452 666 443 661 405 606 c 2
 318 485 l 1
 469 86 l 2
 480 59 499 46 538 46 c 2
 560 46 l 1
 560 0 l 1
 319 0 l 1
 319 46 l 1
 352 46 l 2
 360 46 366 55 366 64 c 0
 366 72 365 79 362 88 c 2
 248 388 l 1
 186 303 l 1
 186 73 l 2
 186 55 198 46 223 46 c 2
 276 46 l 1
 276 0 l 1
 6 0 l 1
EndSplineSet
Validated: 1
EndChar

StartChar: L
Encoding: 76 76 47
Width: 566
GlyphClass: 2
Flags: W
HStem: 0 46<9 82.7981 188.182 422.164> 666 46<9 82.7981 188.165 303>
VStem: 83 105<47.007 664.993> 477 33<151.581 272>
AnchorPoint: "Bottom" 303 0 basechar 0
AnchorPoint: "Top" 164 762 basechar 0
LayerCount: 2
Fore
SplineSet
9 0 m 1
 9 46 l 1
 49 46 l 2
 72 46 83 54 83 72 c 2
 83 640 l 2
 83 658 72 666 49 666 c 2
 9 666 l 1
 9 712 l 1
 303 712 l 1
 303 666 l 1
 215 666 l 2
 197 666 188 658 188 640 c 2
 188 72 l 2
 188 54 198 46 215 46 c 2
 371 46 l 2
 432 46 451 108 464 165 c 0
 470 195 474 220 476 240 c 2
 477 272 l 1
 510 272 l 1
 496 0 l 1
 9 0 l 1
EndSplineSet
Validated: 1
EndChar

StartChar: M
Encoding: 77 77 48
Width: 566
GlyphClass: 2
Flags: W
HStem: 0 46<5 53.625 120.75 181 332 399 504.041 561> 666 46<5 63.9737 504.038 561>
VStem: 64 50<52.9337 570> 399 105<47.7056 587>
DStem2: 175 712 116 570 0.219105 -0.975701<125.622 483.756> 281 240 276 0 0.205086 0.978744<0 363.824>
AnchorPoint: "Bottom" 261 0 basechar 0
AnchorPoint: "Top" 271 762 basechar 0
LayerCount: 2
Fore
SplineSet
5 0 m 1
 5 46 l 1
 23 46 l 2
 50 46 64 77 64 120 c 2
 64 643 l 2
 64 659 55 666 38 666 c 2
 5 666 l 1
 5 712 l 1
 175 712 l 1
 281 240 l 1
 380 712 l 1
 561 712 l 1
 561 666 l 1
 541 666 l 2
 517 666 504 659 504 643 c 2
 504 69 l 2
 504 53 518 46 546 46 c 2
 561 46 l 1
 561 0 l 1
 332 0 l 1
 332 46 l 1
 380 46 l 2
 392 46 399 52 399 67 c 2
 399 587 l 1
 276 0 l 1
 244 0 l 1
 116 570 l 1
 114 570 l 1
 114 114 l 2
 114 80 121 46 147 46 c 2
 181 46 l 1
 181 0 l 1
 5 0 l 1
EndSplineSet
Validated: 1
EndChar

StartChar: N
Encoding: 78 78 49
Width: 566
GlyphClass: 2
Flags: W
HStem: -18 21G<417.481 479> 0 46<12 81.625 145.481 216> 666 46<12 86.9765 359 419.172 493.631 554>
VStem: 87 52<49.1443 585> 427 52<244 653.024>
DStem2: 204 712 140 585 0.429759 -0.902944<87.1692 518.414>
AnchorPoint: "Bottom" 285 0 basechar 0
AnchorPoint: "Top" 285 762 basechar 0
LayerCount: 2
Fore
SplineSet
12 0 m 1x78
 12 46 l 1
 47 46 l 2x78
 86 46 87 77 87 120 c 2
 87 643 l 2
 87 659 79 666 62 666 c 2
 12 666 l 1
 12 712 l 1
 204 712 l 1
 427 244 l 1
 427 604 l 2
 427 636 417 666 385 666 c 2
 359 666 l 1
 359 712 l 1
 554 712 l 1
 554 666 l 1
 535 666 l 2
 497 666 479 632 479 590 c 2
 479 -18 l 1
 427 -18 l 1xb8
 140 585 l 1
 139 585 l 1
 139 119 l 2
 139 83 143 46 175 46 c 2
 216 46 l 1
 216 0 l 1
 12 0 l 1x78
EndSplineSet
Validated: 1
EndChar

StartChar: O
Encoding: 79 79 50
Width: 566
GlyphClass: 2
Flags: W
HStem: -18 46<220.681 345.319> 684 46<220.681 345.319>
VStem: 14 128<183.699 528.301> 424 128<183.699 528.301>
AnchorPoint: "Bottom" 282 6 basechar 0
AnchorPoint: "Top" 282 762 basechar 0
LayerCount: 2
Fore
SplineSet
283 -18 m 256
 104 -18 14 127 14 356 c 256
 14 585 104 730 283 730 c 256
 462 730 552 585 552 356 c 260
 552 127 462 -18 283 -18 c 256
283 28 m 256
 377 28 424 138 424 356 c 256
 424 574 377 684 283 684 c 256
 189 684 142 574 142 356 c 256
 142 138 189 28 283 28 c 256
EndSplineSet
Validated: 1
EndChar

StartChar: P
Encoding: 80 80 51
Width: 566
GlyphClass: 2
Flags: W
HStem: 0 42<4 77.5706 183.288 299> 329 46<183 375.267> 666 46<4 77.7808 183.212 379.085>
VStem: 78 105<43.1694 329 375 664.831> 426 128<439.158 604.996>
AnchorPoint: "Top" 303 762 basechar 0
LayerCount: 2
Fore
SplineSet
4 0 m 1
 4 42 l 1
 43 42 l 2
 66 42 78 50 78 68 c 2
 78 640 l 2
 78 658 66 666 43 666 c 2
 4 666 l 1
 4 712 l 1
 327 712 l 2
 455 712 554 630 554 523 c 256
 554 416 459 329 336 329 c 2
 183 329 l 1
 183 68 l 2
 183 51 191 42 208 42 c 2
 299 42 l 1
 299 0 l 1
 4 0 l 1
183 375 m 1
 325 375 l 2
 396 375 426 460 426 522 c 256
 426 585 398 666 325 666 c 2
 208 666 l 2
 191 666 183 657 183 640 c 2
 183 375 l 1
EndSplineSet
Validated: 1
EndChar

StartChar: Q
Encoding: 81 81 52
Width: 566
GlyphClass: 2
Flags: W
HStem: -176 107<386.914 496.527> -18 46<261.088 329.414> 148 44<259.934 319.877> 684 46<212.562 339.781>
VStem: 5 128<189.268 527.695> 205 49<55.5959 144.678> 330 37<70 138.423> 421 128<207.732 523.547> 529 31<-21.6516 58>
AnchorPoint: "Bottom" 287 5 basechar 0
AnchorPoint: "Top" 276 762 basechar 0
LayerCount: 2
Fore
SplineSet
287 -18 m 0xfe80
 100 -18 5 127 5 356 c 256
 5 585 95 730 276 730 c 256
 458 730 549 582 549 348 c 0xff
 549 205 492 84 374 20 c 1
 378 -29 l 1
 384 -55 405 -69 442 -69 c 0
 500 -69 529 -27 529 58 c 1
 560 58 l 1
 560 -98.3451327434 517.309352518 -176 431 -176 c 0
 366.133110273 -176 330 -121.097031882 330 -47 c 2
 330 -7 l 1
 315 -14 301 -18 287 -18 c 0xfe80
292 148 m 0
 266 148 254 130 254 92 c 0
 254 50 267 28 292 28 c 0
 308 28 320 34 330 44 c 1
 330 101 326 148 292 148 c 0
421 344 m 0
 421 571 373 684 276 684 c 256
 179 684 133 572 133 355 c 0
 133 204 159 104 209 55 c 1
 207 62 205 76 205 94 c 0
 205 148 238 192 286 192 c 0
 341 192 363 149 367 70 c 1
 403 111 421 202 421 344 c 0
EndSplineSet
Validated: 1
EndChar

StartChar: R
Encoding: 82 82 53
Width: 566
GlyphClass: 2
Flags: W
HStem: -12 86<418.649 526.548> 0 42<-3 70.6039 176.323 260> 365 47<176 336.35> 666 46<-3 70.7981 176.105 374.547>
VStem: 71 105<43.007 365 412 664.993> 353 101<112.284 330.796> 412 128<482.33 627.211> 538 32<88.7408 174>
AnchorPoint: "Bottom" 311 1 basechar 0
AnchorPoint: "Top" 311 762 basechar 0
LayerCount: 2
Fore
SplineSet
176 412 m 1x3a
 285 412 l 2
 370 412 412 457 412 550 c 0
 412 612 383 666 306 666 c 2
 203 666 l 2
 185 666 176 658 176 641 c 2
 176 412 l 1x3a
-3 0 m 1x7d
 -3 42 l 1
 37 42 l 2
 60 42 71 50 71 68 c 2
 71 640 l 2
 71 658 60 666 37 666 c 2
 -3 666 l 1
 -3 712 l 1
 323 712 l 2
 451 712 540 653 540 553 c 0x7a
 540 461 442 393 331 382 c 1
 331 376 l 1
 414.433566434 366 451.41958042 332 454 266 c 4
 462.571428571 169 471.142857143 74 502 74 c 0
 526 74 538 108 538 174 c 1
 570 174 l 1
 570 51 542 -12 484 -12 c 0xbd
 356.540540541 -12 353 95 353 210 c 4
 353 284 346.225806452 365 311 365 c 2
 176 365 l 1
 176 68 l 2
 176 50 185 42 203 42 c 2
 260 42 l 1
 260 0 l 1
 -3 0 l 1x7d
EndSplineSet
Validated: 1
EndChar

StartChar: S
Encoding: 83 83 54
Width: 566
GlyphClass: 2
Flags: W
HStem: -18 49<233.599 407.123> -10 21G<79.3769 107.778> 684 46<172.231 349.794> 692 20G<450.947 481.93>
VStem: 63 72<494.5 643.817> 70 31<216.473 311> 80 26<-10 75.8955> 442 80<76.5886 248> 452 29<674 712> 462 31<454 514.347>
DStem2: 264 478 266 303 0.857493 -0.514496<-98.3824 277>
AnchorPoint: "Bottom" 327 0 basechar 0
AnchorPoint: "Top" 288 762 basechar 0
LayerCount: 2
Fore
SplineSet
70 311 m 5x44
 101 311 l 5x44
 106 237 124 173 156 118 c 4
 193 60 252 31 333 31 c 4
 406 31 442 69 442 144 c 4
 442 186 420 205 363 244 c 6
 266 303 l 6
 123 397 63 449 63 540 c 4
 63 675 141 730 257 730 c 4xa9
 318 730 373 709 420 667 c 4
 429 655 434 650 437 650 c 4
 445 650 449 657 450 674 c 6
 452 712 l 5
 481 712 l 5x1880
 493 454 l 5
 462 454 l 5x1040
 430 608 375 684 262 684 c 4
 178 684 135 650 135 595 c 4
 135 552 178 534 264 478 c 6
 389 403 l 6
 493 337 522 291 522 205 c 4
 522 56 464 -18 347 -18 c 4xa9
 281 -18 223 0 177 38 c 4
 168 47 140 83 128 83 c 4
 116 83 111 55 110 35 c 6
 106 -10 l 5
 80 -10 l 5x43
 70 311 l 5x44
EndSplineSet
Validated: 1
EndChar

StartChar: T
Encoding: 84 84 55
Width: 566
GlyphClass: 2
Flags: W
HStem: 0 46<155 229.909 335.074 410> 666 46<136.549 229.909 335.074 427.945>
VStem: 32 31<441 542.117> 230 105<46 666> 501 34<441 552.138>
LayerCount: 2
Fore
SplineSet
32 441 m 1
 42 712 l 1
 524 712 l 1
 535 441 l 1
 501 441 l 1
 501 448 501 459 500 475 c 0
 499 491 494 514 486 545 c 0
 478 576 468 600 454 618 c 0
 429 649 403 666 378 666 c 2
 348 666 l 2
 339 666 335 658 335 640 c 2
 335 72 l 6
 335 54 339 46 348 46 c 6
 410 46 l 5
 410 0 l 1
 155 0 l 1
 155 46 l 5
 216 46 l 6
 225 46 230 54 230 72 c 6
 230 640 l 2
 230 658 225 666 216 666 c 2
 186 666 l 2
 160 666 136 649 111 618 c 0
 97 600 87 576 79 545 c 0
 71 514 66 491 65 475 c 0
 64 459 63 448 63 441 c 1
 32 441 l 1
EndSplineSet
Validated: 1
EndChar

StartChar: U
Encoding: 85 85 56
Width: 566
GlyphClass: 2
Flags: W
HStem: -18 46<243.688 383.207> 666 46<20 85.6372 191.164 265 375 426.327 496.239 548>
VStem: 86 105<100.784 665.051> 439 50<91.7534 643.295>
AnchorPoint: "Bottom" 311 6 basechar 0
AnchorPoint: "Top" 320 762 basechar 0
LayerCount: 2
Fore
SplineSet
300 -18 m 0
 158 -18 86 66 86 233 c 2
 86 639 l 2
 86 657 76 666 53 666 c 2
 20 666 l 1
 20 712 l 1
 265 712 l 1
 265 666 l 1
 217 666 l 2
 200 666 191 658 191 640 c 2
 191 214 l 2
 191 90 232 28 311 28 c 0
 396 28 439 86 439 203 c 2
 439 588 l 2
 439 611 433 630 426 645 c 0
 419 660 409 666 397 666 c 2
 375 666 l 1
 375 712 l 1
 548 712 l 1
 548 666 l 1
 530 666 l 2
 512 666 501 659 496 644 c 0
 491 629 489 611 489 586 c 2
 489 204 l 2
 489 56 426 -18 300 -18 c 0
EndSplineSet
Validated: 1
EndChar

StartChar: V
Encoding: 86 86 57
Width: 566
GlyphClass: 2
Flags: W
HStem: -18 21G<248.899 319.683> 666 46<25 82.1879 201.006 269 345 403.259 480.078 541>
DStem2: 314 185 254 -18 0.247142 -0.968979<-472.371 0> 314 185 315 -18 0.22798 0.973666<0 441.794>
AnchorPoint: "Bottom" 296 0 basechar 0
AnchorPoint: "Top" 306 762 basechar 0
LayerCount: 2
Fore
SplineSet
254 -18 m 1
 90 625 l 2
 83 651 69 666 37 666 c 2
 25 666 l 1
 25 712 l 1
 269 712 l 1
 269 666 l 1
 219 666 l 2
 209 666 201 655 201 644 c 0
 201 637 201 630 203 623 c 2
 314 185 l 1
 400 549 l 2
 406 573 407 596 407 618 c 0
 407 642 400 666 377 666 c 2
 345 666 l 1
 345 712 l 1
 541 712 l 5
 541 666 l 5
 526 666 l 2
 491 666 469 642 459 597 c 2
 315 -18 l 1
 254 -18 l 1
EndSplineSet
Validated: 1
EndChar

StartChar: W
Encoding: 87 87 58
Width: 566
GlyphClass: 2
Flags: W
HStem: -18 21G<146.672 194.89 386.071 419.74> 666 46<-13 35.6963 139.004 175 209 259.715 344.924 396 428 482.957 546.617 580>
DStem2: 142 623 43 625 0.16415 -0.986435<-23.1283 374.008> 203 254 290 491 0.190921 0.981605<0 249.251> 350 587 264 632 0.190304 -0.981725<-45.745 -28.9684 82.8274 351.446> 417 242 416 -18 0.183806 0.982963<0 385.591>
AnchorPoint: "Bottom" 297 0 basechar 0
AnchorPoint: "Top" 301 762 basechar 0
LayerCount: 2
Fore
SplineSet
150 -18 m 1
 43 625 l 2
 38 652 20 666 -11 666 c 2
 -13 666 l 1
 -13 712 l 1
 175 712 l 1
 175 666 l 1
 154 666 l 2
 144 666 139 659 139 646 c 0
 139 645 140 636 142 623 c 2
 203 254 l 1
 270 601 l 1
 264 632 l 2
 259 655 244 666 219 666 c 2
 209 666 l 1
 209 712 l 1
 396 712 l 1
 396 666 l 1
 368 666 l 2
 350 666 344 652 344 633 c 0
 344 621 347 604 350 587 c 2
 417 242 l 1
 475 551 l 2
 479 572 486 609 486 622 c 0
 486 647 478 666 449 666 c 2
 428 666 l 1
 428 712 l 1
 580 712 l 1
 580 666 l 1
 577 666 l 2
 555 666 539 642 531 597 c 2
 416 -18 l 1
 390 -18 l 1
 290 491 l 1
 191 -18 l 1
 150 -18 l 1
EndSplineSet
Validated: 1
EndChar

StartChar: X
Encoding: 88 88 59
Width: 566
GlyphClass: 2
Flags: W
HStem: 0 46<28 86.5749 153.006 224 344 363.999 486.093 546> 666 46<20 109.961 230.001 256 332 407.994 472.804 537>
DStem2: 112 107 166 103 0.492057 0.870563<-15.9765 234.446 404.358 613.516> 311 459 245 342 0.40567 -0.91402<-208.051 0 61.3268 80.1661 140.579 381.324>
LayerCount: 2
Fore
SplineSet
28 0 m 1
 28 46 l 1
 39 46 l 2
 67 46 85 55 112 107 c 1
 245 342 l 1
 123 618 l 2
 109 650 102 666 59 666 c 2
 20 666 l 1
 20 712 l 1
 256 712 l 1
 256 666 l 1
 237 666 l 2
 232 666 230 660 230 651 c 0
 230 644 231 637 235 629 c 2
 311 459 l 1
 392 603 l 2
 399 617 408 633 408 645 c 0
 408 658 400 666 372 666 c 2
 332 666 l 1
 332 712 l 1
 537 712 l 1
 537 666 l 1
 500 666 l 2
 487 666 482 659 465 632 c 1
 336 403 l 1
 476 86 l 1
 492 52 504 46 528 46 c 2
 546 46 l 1
 546 0 l 1
 344 0 l 1
 344 46 l 1
 355 46 l 2
 362 46 364 54 364 65 c 0
 364 72 362 79 358 88 c 2
 270 287 l 1
 166 103 l 2
 159 89 153 75 153 65 c 0
 153 53 161 46 186 46 c 2
 224 46 l 1
 224 0 l 1
 28 0 l 1
EndSplineSet
Validated: 1
EndChar

StartChar: Y
Encoding: 89 89 60
Width: 566
GlyphClass: 2
Flags: W
HStem: 0 46<157 248.644 354.534 444> 666 46<28 88.5493 215.002 244 373 420.742 486.169 538>
VStem: 249 105<46.4258 333>
DStem2: 328 415 249 333 0.4557 -0.890134<-258.601 0> 328 415 354 364 0.411171 0.911558<0 241.868>
AnchorPoint: "Bottom" 304 0 basechar 0
AnchorPoint: "Top" 307 762 basechar 0
LayerCount: 2
Fore
SplineSet
224 666 m 2
 218 666 215 658 215 648 c 0
 215 641 218 632 222 623 c 2
 328 415 l 1
 406 588 l 2
 415 609 421 626 421 639 c 0
 421 656 414 666 395 666 c 2
 373 666 l 1
 373 712 l 1
 538 712 l 1
 538 666 l 1
 534 666 l 2
 498 666 481 645 460 599 c 2
 354 364 l 1
 354 75 l 2
 354 55 363 46 381 46 c 2
 444 46 l 1
 444 0 l 1
 157 0 l 1
 157 46 l 1
 221 46 l 2
 239 46 249 55 249 73 c 2
 249 333 l 1
 99 626 l 2
 83 659 68 666 45 666 c 2
 28 666 l 1
 28 712 l 1
 244 712 l 1
 244 666 l 1
 224 666 l 2
EndSplineSet
Validated: 1
EndChar

StartChar: Z
Encoding: 90 90 61
Width: 566
GlyphClass: 2
Flags: W
HStem: 0 46<167 428.949> 666 46<166.416 403>
VStem: 64 32<451 497.846> 494 32<251 283>
DStem2: 49 42 167 46 0.493747 0.869605<61.7406 717.42>
AnchorPoint: "Bottom" 411 0 basechar 0
AnchorPoint: "Top" 384 762 basechar 0
LayerCount: 2
Fore
SplineSet
49 0 m 1
 49 42 l 1
 403 666 l 1
 210 666 l 2
 186 666 163 648 142 612 c 0
 128 587 116 555 108 518 c 0
 100 481 96 459 96 451 c 1
 64 451 l 1
 103 712 l 1
 523 712 l 1
 523 673 l 1
 167 46 l 1
 400 46 l 2
 443 46 480 189 488 251 c 2
 494 283 l 1
 526 283 l 1
 496 0 l 1
 49 0 l 1
EndSplineSet
Validated: 1
EndChar

StartChar: bracketleft
Encoding: 91 91 62
Width: 566
GlyphClass: 2
Flags: W
HStem: -198 34<351.062 386.824> 696 34<351.062 386.824>
VStem: 176 105<-147.855 679.855>
LayerCount: 2
Fore
SplineSet
176 -182 m 1
 176 714 l 1
 386 730 l 1
 390 696 l 1
 301 680 l 2
 287 677 281 668 281 649 c 2
 281 -117 l 2
 281 -136 287 -145 301 -148 c 2
 390 -164 l 1
 386 -198 l 1
 176 -182 l 1
EndSplineSet
Validated: 1
EndChar

StartChar: backslash
Encoding: 92 92 63
Width: 566
GlyphClass: 2
Flags: W
HStem: 710 20G<113 180.991>
DStem2: 175 730 113 730 0.286969 -0.95794<0 950.953>
LayerCount: 2
Fore
SplineSet
453 -198 m 1
 391 -198 l 1
 113 730 l 1
 175 730 l 1
 453 -198 l 1
EndSplineSet
Validated: 1
EndChar

StartChar: bracketright
Encoding: 93 93 64
Width: 566
GlyphClass: 2
Flags: W
HStem: -198 34<179.176 214.938> 696 34<179.176 214.938>
VStem: 285 105<-147.855 679.855>
LayerCount: 2
Fore
SplineSet
390 -182 m 1
 180 -198 l 1
 176 -164 l 1
 265 -148 l 2
 279 -145 285 -136 285 -117 c 2
 285 649 l 2
 285 668 279 677 265 680 c 2
 176 696 l 1
 180 730 l 1
 390 714 l 1
 390 -182 l 1
EndSplineSet
Validated: 1
EndChar

StartChar: asciicircum
Encoding: 94 94 65
Width: 566
GlyphClass: 2
Flags: W
HStem: 697 20G<274.198 297.645>
DStem2: 60 334 131 334 0.508199 0.86124<36.0821 341.359> 286 717 286 597 0.503169 -0.864188<103.703 407.969>
LayerCount: 2
Fore
SplineSet
60 334 m 1
 286 717 l 5
 509 334 l 1
 439 334 l 1
 286 597 l 1
 131 334 l 1
 60 334 l 1
EndSplineSet
Validated: 1
EndChar

StartChar: underscore
Encoding: 95 95 66
Width: 566
GlyphClass: 2
Flags: W
HStem: -167 62<62 504>
LayerCount: 2
Fore
SplineSet
62 -167 m 1
 62 -105 l 5
 504 -105 l 5
 504 -167 l 1
 62 -167 l 1
EndSplineSet
Validated: 1
EndChar

StartChar: grave
Encoding: 715 715 67
AltUni2: 000060.ffffffff.0
Width: 566
GlyphClass: 2
Flags: W
HStem: 466 258
VStem: 206 154
LayerCount: 2
Fore
SplineSet
231 724 m 0
 247 724 262 708 276 677 c 2
 360 482 l 1
 349 466 l 1
 231 615 l 2
 213 635 206 656 206 679 c 0
 206 709 213 724 231 724 c 0
EndSplineSet
Validated: 1
EndChar

StartChar: a
Encoding: 97 97 68
Width: 566
GlyphClass: 2
Flags: W
HStem: -12 57<436 525.658> -12 50<173.715 280.982> 422 46<149.369 341.812>
VStem: 41 121<50.1273 165.518> 72 74<314.5 409.39> 374 105<46.1629 80 101.591 211 250 392.387> 533 29<53.5515 127>
DStem2: 251 236 256 197 0.993585 0.113091<-71.2671 119.384>
AnchorPoint: "Top" 272 508 basechar 0
AnchorPoint: "Bottom" 263 3 basechar 0
LayerCount: 2
Fore
SplineSet
162 101 m 0x76
 162 59 183 38 224 38 c 0
 301 38 347 92 374 126 c 1
 374 211 l 1
 256 197 l 1
 191 188 162 163 162 101 c 0x76
149 260 m 0
 104.484375 260 72 294 72 335 c 0
 72 432 135.901840491 468 258 468 c 0
 372 468 479 429 479 330 c 2
 479 91 l 2
 479 61 483 45 504 45 c 0
 523 45 533 73 533 127 c 1
 562 127 l 1
 562 34 529 -12 465 -12 c 0xae
 407 -12 377 18 374 80 c 1
 369 82 l 1
 340 38 273 -12 182 -12 c 0
 99 -12 41 19 41 100 c 0x76
 41 201 151 223 251 236 c 2
 374 250 l 1
 374 338 l 2
 374 394 333 422 249 422 c 0
 210.23655914 422 146 412 146 393 c 0x6e
 146 383 152 377 163 376 c 0
 189 366 201 347 201 318 c 0
 201 279 184 260 149 260 c 0
EndSplineSet
Validated: 1
EndChar

StartChar: b
Encoding: 98 98 69
Width: 566
GlyphClass: 2
Flags: W
HStem: -12 46<235.839 349.446> 0 21G<81 117.513> 420 48<242.782 350.906> 666 46<6 81>
VStem: 81 105<88.5837 350.197 393 666> 393 128<113.614 338.01>
AnchorPoint: "Bottom" 273 1 basechar 0
LayerCount: 2
Fore
SplineSet
293 34 m 0xbc
 381 34 393 132 393 228 c 256
 393 323 381 420 293 420 c 0
 234 420 186 335 186 261 c 2
 186 172 l 2
 186 100 230 34 293 34 c 0xbc
81 0 m 1x7c
 81 644 l 2
 81 659 74 666 60 666 c 2
 6 666 l 1
 6 712 l 1
 186 712 l 1
 186 393 l 1
 192 391 l 1
 215 427 251 468 313 468 c 0
 456 468 521 339 521 228 c 256
 521 97 449 -12 303 -12 c 0xbc
 241 -12 191 19 154 80 c 1
 148 78 l 1
 107 0 l 1
 81 0 l 1x7c
EndSplineSet
Validated: 1
EndChar

StartChar: c
Encoding: 99 99 70
Width: 566
GlyphClass: 2
Flags: W
HStem: -12 46<238.177 408.691> 425 43<239.501 431.335>
VStem: 58 128<120.106 336.639> 441 67<308 404.665> 477 42<96.8039 147>
AnchorPoint: "Bottom" 298 18 basechar 0
AnchorPoint: "Top" 315 508 basechar 0
LayerCount: 2
Fore
SplineSet
292 -12 m 0xe8
 217 -12 159 12 119 58 c 0
 79 104 58 161 58 228 c 256
 58 295 78 352 119 398 c 0
 162 444 223 468 301 468 c 0
 427.657534247 468 508 439 508 320 c 0
 508 296 502 277 490 264 c 0
 478 251 464 245 447 245 c 0
 429 245 416 251 404 264 c 0
 392 277 386 291 386 309 c 0
 386 343 399 366 424 377 c 0
 436 379 441 383 441 389 c 0xf0
 441 417 365.978723404 425 312 425 c 0
 202 425 186 333 186 229 c 256
 186 132 200 34 308 34 c 0
 405 34 464 76 477 147 c 1
 519 147 l 1
 501 40 412 -12 292 -12 c 0xe8
EndSplineSet
Validated: 1
EndChar

StartChar: d
Encoding: 100 100 71
Width: 566
GlyphClass: 2
Flags: W
HStem: -12 46<214.564 325.856> 0 46<486 558> 422 46<214.948 318.947> 666 46<296 381>
VStem: 46 128<114.047 338.371> 381 105<46 52 90.3842 347.709 393 666>
AnchorPoint: "Bottom" 273 1 basechar 0
LayerCount: 2
Fore
SplineSet
267 34 m 0xbc
 333 34 381 98 381 172 c 2
 381 261 l 2
 381 335 330 422 267 422 c 0
 184 422 174 323 174 228 c 256
 174 133 184 34 267 34 c 0xbc
381 0 m 1x7c
 381 52 l 1
 376 55 l 1
 341 11 300 -12 253 -12 c 0xbc
 116 -12 46 98 46 228 c 260
 46 339 110 468 248 468 c 0
 303 468 351 428 375 392 c 1
 381 393 l 1
 381 644 l 2
 381 659 380 666 375 666 c 2
 296 666 l 1
 296 712 l 1
 486 712 l 1
 486 68 l 2
 486 53 493 46 507 46 c 2
 558 46 l 1
 558 0 l 1
 381 0 l 1x7c
EndSplineSet
Validated: 1
EndChar

StartChar: e
Encoding: 101 101 72
Width: 566
GlyphClass: 2
Flags: W
HStem: -12 46<230.116 413.014> 216 49<177 403> 422 46<225.599 354.715>
VStem: 49 128<115.036 216 265 334.426> 403 125<265 338.256> 475 38<100.309 154>
AnchorPoint: "Bottom" 281 4 basechar 0
AnchorPoint: "Top" 295 508 basechar 0
LayerCount: 2
Fore
SplineSet
177 265 m 1xf8
 403 265 l 1
 403 343 380 422 290 422 c 256
 202 422 177 343 177 265 c 1xf8
49 228 m 0
 49 366 136 468 296 468 c 0
 461 468 528 360 528 216 c 1xf8
 177 216 l 1
 177 106 200.42384106 34 308 34 c 0
 419.333333333 34 463.639455782 79 475 154 c 1
 513 154 l 1xf4
 495.407960199 39 438.233830846 -12 292 -12 c 0
 135.851711027 -12 49 75 49 228 c 0
EndSplineSet
Validated: 1
EndChar

StartChar: f
Encoding: 102 102 73
Width: 566
GlyphClass: 2
Flags: W
HStem: 0 46<44 165 270 430> 410 46<52 165 270 513> 678 46<309.477 472.913>
VStem: 165 105<46.0461 410 456 622.408> 473 70<598.5 672.905>
LayerCount: 2
Fore
SplineSet
489 557 m 0
 461 557 442 574 442 598 c 0
 442 614 447 625 458 632 c 0
 468 638 473 645 473 655 c 0
 473 670 450.191489362 678 406 678 c 4
 314.461538462 678 270 646 270 583 c 2
 270 456 l 1
 513 456 l 1
 513 410 l 1
 270 410 l 1
 270 67 l 2
 270 53 277 46 294 46 c 2
 430 46 l 1
 430 0 l 1
 44 0 l 1
 44 46 l 1
 144 46 l 2
 158 46 165 53 165 67 c 2
 165 410 l 1
 52 410 l 1
 52 456 l 1
 165 456 l 1
 165 525 l 2
 165 671 264.879699248 724 411 724 c 4
 508.821428571 724 543 677 543 615 c 0
 543 582 524 557 489 557 c 0
EndSplineSet
Validated: 1
EndChar

StartChar: g
Encoding: 103 103 74
Width: 566
GlyphClass: 2
Flags: W
HStem: -238 46<137.471 420.841> -30 93<128.596 448.394> 134 46<191.682 296.301> 422 46<193.124 298.606> 443 26<433.677 502.802>
VStem: 16 72<-154.458 -74.3338> 30 58<38 101.168> 40 116<228.628 380.671> 334 116<224.217 364.758> 464 68<-155.185 -45.3475> 465 101<352.133 411.587> 504 62<411.27 441.803>
AnchorPoint: "Top" 250 508 basechar 0
LayerCount: 2
Fore
SplineSet
464 -106 m 0xe4c0
 464 -56 449 -30 383 -30 c 2
 255 -30 l 2
 183 -30 135 -41 111 -64 c 0
 96 -78 88 -95 88 -117 c 0
 88 -174 194 -192 275 -192 c 0
 370 -192 464 -182 464 -106 c 0xe4c0
246 180 m 0
 302 180 334 237 334 301 c 0
 334 365 302 422 246 422 c 0
 187 422 156 366 156 301 c 0xf180
 156 235 187 180 246 180 c 0
260 134 m 0
 212 134 88 110 88 81 c 0xea90
 88 67 113 60 166 60 c 6
 232 63 l 5
 352 63 l 6
 450 63 532 23 532 -84 c 0
 532 -186 446 -238 274 -238 c 0
 160 -238 16 -215 16 -123 c 0xecc0
 16 -71 82 -33 145 -26 c 1
 145 -21 l 1
 68 -7 30 18 30 58 c 0xea80
 30 120 96 139 179 147 c 1
 179 151 l 1
 86 180 41 231 40 303 c 0
 40 406 131 468 239 468 c 0xf180
 312 468 367 433 385 407 c 1
 400 448 432 469 482 469 c 0
 532 469 562 446 566 399 c 2
 566 390 l 1
 561 359 544 345 516 345 c 0
 484 345 466 358 465 383 c 0xe9a0
 465 398 471 407 484 412 c 0
 497 417 504 422 504 427 c 0
 504 438 496 443 480 443 c 0xe890
 439 443 413 421 408 389 c 1
 435 363 450 332 450 297 c 0
 450 205 358 134 260 134 c 0
EndSplineSet
Validated: 1
EndChar

StartChar: h
Encoding: 104 104 75
Width: 566
GlyphClass: 2
Flags: W
HStem: 0 46<23 80 185 262 316 387 492 551> 422 46<266.757 368.38> 666 46<5 80>
VStem: 80 105<46.1113 331.318 369 666> 387 105<46.0462 404.814>
AnchorPoint: "Bottom" 289 0 basechar 0
AnchorPoint: "Top" 269 752 basechar 0
LayerCount: 2
Fore
SplineSet
23 0 m 1
 23 46 l 1
 59 46 l 2
 73 46 80 52 80 67 c 2
 80 645 l 2
 80 660 73 666 59 666 c 2
 5 666 l 1
 5 712 l 1
 185 712 l 1
 185 369 l 5
 189 368 l 5
 220 419 272 468 344 468 c 0
 446 468 492 418 492 323 c 2
 492 68 l 2
 492 53 498 46 512 46 c 2
 551 46 l 1
 551 0 l 1
 316 0 l 1
 316 46 l 1
 363 46 l 2
 380 46 387 53 387 67 c 2
 387 334 l 2
 387 393 364 422 319 422 c 0
 253 422 185 319 185 263 c 6
 185 67 l 2
 185 53 193 46 210 46 c 2
 262 46 l 1
 262 0 l 1
 23 0 l 1
EndSplineSet
Validated: 1
EndChar

StartChar: i
Encoding: 105 105 76
Width: 566
GlyphClass: 2
Flags: W
HStem: 0 46<48 226 331 518> 410 46<66 226> 555 151<226.225 333.814>
VStem: 204.52 151<576.706 684.295> 226 105<46 410>
AnchorPoint: "Bottom" 278 0 basechar 0
LayerCount: 2
Fore
SplineSet
48 0 m 5xe8
 48 46 l 5
 206 46 l 6
 220 46 226 53 226 67 c 6
 226 389 l 6
 226 403 220 410 206 410 c 6
 66 410 l 5
 66 456 l 5
 331 456 l 5
 331 68 l 6
 331 53 338 46 352 46 c 6
 518 46 l 5
 518 0 l 5
 48 0 l 5xe8
EndSplineSet
Refer: 163 729 N 1 0 0 1 51.52 36 2
Validated: 1
Colour: ffff
EndChar

StartChar: j
Encoding: 106 106 77
Width: 566
GlyphClass: 2
Flags: W
HStem: -238 46<162.918 340.403> 410 46<96 380> 555 151<357.785 465.374>
VStem: 60 68<-161.339 -76.5> 336.08 151<576.706 684.295> 380 105<-151.955 410>
LayerCount: 2
Fore
SplineSet
110 -35 m 0xf4
 138 -35 159 -51 159 -76 c 0
 159 -93 154 -104 144 -111 c 0
 133 -118 128 -123 128 -129 c 0
 128 -173 215 -192 273 -192 c 0
 344 -192 380 -150 380 -65 c 2
 380 389 l 2
 380 404 373 410 359 410 c 2
 96 410 l 1
 96 456 l 1
 485 456 l 1
 485 -73 l 2
 485 -169 449 -238 282 -238 c 0
 170 -238 60 -216 60 -92 c 4
 60 -61 78 -35 110 -35 c 0xf4
EndSplineSet
Refer: 163 729 N 1 0 0 1 183.08 36 2
Validated: 1
Colour: ffff
EndChar

StartChar: k
Encoding: 107 107 78
Width: 566
GlyphClass: 2
Flags: W
HStem: 0 31<5 79.4581 185.85 258 334 372.996 513.38 556> 425 31<332 399.988 470.696 526> 681 31<5 79.4581>
VStem: 80 105<31.0828 178 241 681>
DStem2: 185 241 185 178 0.76095 0.64881<0 42.8615 151.325 278.322> 331 303 249 232 0.574146 -0.818753<11.0515 234.182>
AnchorPoint: "Bottom" 286 0 basechar 0
LayerCount: 2
Fore
SplineSet
5 0 m 1
 5 31 l 1
 60 31 l 2
 74 31 80 38 80 53 c 2
 80 659 l 2
 80 674 74 681 60 681 c 2
 5 681 l 1
 5 712 l 1
 185 712 l 1
 185 241 l 1
 374 402 l 2
 399 412 400 414 400 418 c 0
 400 423 383 425 358 425 c 2
 332 425 l 1
 332 456 l 1
 526 456 l 1
 526 425 l 1
 496 425 l 2
 490 425 485 425 470 421 c 2
 331 303 l 1
 500 62 l 2
 517 39 529 31 546 31 c 2
 556 31 l 1
 556 0 l 1
 334 0 l 1
 334 31 l 1
 350 31 l 2
 367 31 373 37 373 46 c 0
 373 55 364 68 354 83 c 2
 249 232 l 1
 185 178 l 1
 185 55 l 2
 185 38 193 31 210 31 c 2
 258 31 l 1
 258 0 l 1
 5 0 l 1
EndSplineSet
Validated: 1
EndChar

StartChar: l
Encoding: 108 108 79
Width: 566
GlyphClass: 2
Flags: W
HStem: 0 46<42 230 336 524> 666 46<51 230>
VStem: 230 106<46.0462 665.982>
AnchorPoint: "Bottom" 286 0 basechar 0
AnchorPoint: "Top" 286 752 basechar 0
LayerCount: 2
Fore
SplineSet
42 0 m 1
 42 46 l 5
 207 46 l 6
 224 46 230 52 230 67 c 6
 230 645 l 2
 230 660 224 666 207 666 c 2
 51 666 l 1
 51 712 l 1
 336 712 l 1
 336 68 l 6
 336 53 343 46 360 46 c 6
 524 46 l 5
 524 0 l 1
 42 0 l 1
EndSplineSet
Validated: 1
EndChar

StartChar: m
Encoding: 109 109 80
Width: 566
GlyphClass: 2
Flags: W
HStem: 0 46<-13 20 125 166 188 231 336 370 392 438 543 577> 410 46<-13 20> 420 48<175.946 265.5 375.737 478>
VStem: 20 105<46.6204 381.497 399 410> 231 105<46.082 386.125> 438 105<46.0462 414.301>
LayerCount: 2
Fore
SplineSet
-13 0 m 1xbc
 -13 46 l 1
 0 46 l 2
 14 46 20 53 20 67 c 2
 20 389 l 2
 20 403 14 410 0 410 c 2
 -13 410 l 1
 -13 456 l 1
 125 456 l 1xdc
 125 399 l 1
 130 398 l 1
 161 445 199 468 242 468 c 0
 289 468 318 438 329 397 c 1
 338 397 l 1
 362 444 394 468 439 468 c 0
 517 468 543 420 543 323 c 2
 543 68 l 2
 543 53 549 46 563 46 c 2
 577 46 l 1
 577 0 l 1
 392 0 l 1
 392 46 l 1
 414 46 l 2
 430 46 438 53 438 67 c 2
 438 334 l 2
 438 392 426 420 400 420 c 0
 372 420 336 366 336 311 c 2
 336 67 l 2
 336 53 344 46 361 46 c 2
 370 46 l 1
 370 0 l 1
 188 0 l 1
 188 46 l 1
 207 46 l 2
 223 46 231 53 231 67 c 2
 231 334 l 2
 231 392 221 420 200 420 c 0
 170 420 125 374 125 311 c 2
 125 67 l 2
 125 53 136 46 156 46 c 2
 166 46 l 1
 166 0 l 1
 -13 0 l 1xbc
EndSplineSet
Validated: 1
EndChar

StartChar: n
Encoding: 110 110 81
Width: 566
GlyphClass: 2
Flags: W
HStem: 0 43<18 78 182 244 313 384 488.005 548> 413 43<18 78> 418 50<263.448 365.388>
VStem: 78 104<43.082 327.197 368 413> 384 104<43.0823 397.958>
AnchorPoint: "Bottom" 277 0 basechar 0
AnchorPoint: "Top" 268 508 basechar 0
LayerCount: 2
Fore
SplineSet
342 468 m 0xb8
 443 468 488 417 488 322 c 2
 488 65 l 2
 488 50 495 43 509 43 c 2
 548 43 l 1
 548 0 l 1
 313 0 l 1
 313 43 l 1
 359 43 l 2
 376 43 384 50 384 64 c 2
 384 333 l 2
 384 389 360 418 313 418 c 0xb8
 249 418 182 323 182 246 c 2
 182 64 l 2
 182 50 190 43 207 43 c 2
 244 43 l 1
 244 0 l 1
 18 0 l 1
 18 43 l 1
 57 43 l 2
 71 43 78 50 78 64 c 2
 78 392 l 2
 78 406 71 413 57 413 c 2
 18 413 l 1
 18 456 l 1
 182 456 l 1xd8
 182 368 l 1
 187 368 l 1
 218 420 270 468 342 468 c 0xb8
EndSplineSet
Validated: 1
EndChar

StartChar: o
Encoding: 111 111 82
Width: 566
GlyphClass: 2
Flags: W
HStem: -12 46<226.063 339.782> 422 46<226.063 339.782>
VStem: 49 128<123.923 332.077> 389 128<123.923 332.077>
AnchorPoint: "Bottom" 282 4 basechar 0
AnchorPoint: "Top" 283 508 basechar 0
LayerCount: 2
Fore
SplineSet
283 34 m 256
 354 34 389 98 389 228 c 256
 389 358 354 422 283 422 c 256
 212 422 177 358 177 228 c 256
 177 98 212 34 283 34 c 256
283 -12 m 256
 145 -12 49 92 49 228 c 256
 49 364 145 468 283 468 c 256
 420 468 517 364 517 228 c 256
 517 92 420 -12 283 -12 c 256
EndSplineSet
Validated: 1
EndChar

StartChar: p
Encoding: 112 112 83
Width: 566
GlyphClass: 2
Flags: W
HStem: -230 46<6 82 187 251> -12 46<239.904 353.604> 410 46<6 82> 422 46<251.444 353.17>
VStem: 82 105<-184 42 90.3842 347.709 393 410> 391 128<109.656 338.371>
AnchorPoint: "Top" 267 508 basechar 0
LayerCount: 2
Fore
SplineSet
302 34 m 0xdc
 382 34 391 133 391 228 c 256
 391 323 382 422 302 422 c 0
 239 422 187 335 187 261 c 2
 187 172 l 2
 187 98 235 34 302 34 c 0xdc
6 -230 m 1
 6 -184 l 1
 62 -184 l 2
 76 -184 82 -178 82 -163 c 2
 82 389 l 2
 82 404 76 410 62 410 c 2
 6 410 l 1
 6 456 l 1
 187 456 l 1xec
 187 393 l 1
 194 391 l 1
 219 428 266 468 322 468 c 0
 457 468 519 339 519 228 c 256
 519 98 452 -12 317 -12 c 0
 270 -12 228 8 193 45 c 1
 187 42 l 1
 187 -162 l 2
 187 -177 189 -184 194 -184 c 2
 251 -184 l 1
 251 -230 l 1
 6 -230 l 1
EndSplineSet
Validated: 1
EndChar

StartChar: q
Encoding: 113 113 84
Width: 566
GlyphClass: 2
Flags: W
HStem: -230 46<310 383 488 565> -12 46<213.922 326.529> 422 46<215.27 322.855> 436 20G<450.773 488>
VStem: 45 128<112.394 333.496> 383 105<-183.918 51 93.5127 355.02>
AnchorPoint: "Top" 266 508 basechar 0
LayerCount: 2
Fore
SplineSet
310 -230 m 1xdc
 310 -184 l 1
 358 -184 l 2
 375 -184 383 -177 383 -162 c 2
 383 51 l 1
 377 54 l 1
 341 10 300 -12 252 -12 c 0
 113 -12 45 98 45 228 c 260
 45 338 115 468 255 468 c 0xec
 329 468 384 418 406 366 c 1
 416 368 l 1
 461 456 l 1
 488 456 l 1
 488 -162 l 2
 488 -177 494 -184 508 -184 c 2
 565 -184 l 1
 565 -230 l 1
 310 -230 l 1xdc
268 34 m 0
 334 34 383 99 383 172 c 2
 383 276 l 2
 383 344 329 422 268 422 c 0
 184 422 173 322 173 228 c 256
 173 134 184 34 268 34 c 0
EndSplineSet
Validated: 1
EndChar

StartChar: r
Encoding: 114 114 85
Width: 566
GlyphClass: 2
Flags: W
HStem: 0 46<9 123 228 349> 410 46<8 123> 419 49<338.22 474.275>
VStem: 123 105<46.082 287.041 331 410> 475 67<354.5 416.44>
AnchorPoint: "Bottom" 178 0 basechar 0
AnchorPoint: "Top" 325 508 basechar 0
LayerCount: 2
Fore
SplineSet
9 0 m 1xb8
 9 46 l 1
 103 46 l 2
 117 46 123 53 123 67 c 2
 123 389 l 2
 123 403 117 410 103 410 c 2
 8 410 l 1
 8 456 l 1
 228 456 l 1xd8
 228 331 l 1
 233 330 l 1
 279 430 357 468 419 468 c 0
 526 468 542 426 542 372 c 0
 542 337 518 302 480 302 c 0
 452 302 430 314 430 338 c 0
 430 356 438 370 455 380 c 0
 469 387 475 393 475 402 c 0
 475 417 452 419 403 419 c 0
 322 419 228 319 228 181 c 2
 228 67 l 2
 228 53 236 46 253 46 c 2
 349 46 l 1
 349 0 l 1
 9 0 l 1xb8
EndSplineSet
Validated: 1
EndChar

StartChar: s
Encoding: 115 115 86
Width: 566
GlyphClass: 2
Flags: W
HStem: -17 44<202.09 399.293> 422 46<180.114 348.044> 438 20G<433 458>
VStem: 77 23<-12 10.8009 146.15 189> 83 79<328.369 401.847> 425 72<51.5743 135.416> 435 23<304 325.066 442 458>
DStem2: 250 306 214 194 0.964625 -0.263624<-93.1668 213.318>
AnchorPoint: "Bottom" 284 4 basechar 0
AnchorPoint: "Top" 284 508 basechar 0
LayerCount: 2
Fore
SplineSet
83 336 m 0xcc
 83 433 164 468 261 468 c 0
 309 468 354 458 384 439 c 0
 392 434 407 422 418 422 c 0xcc
 425 422 431 427 433 442 c 2
 435 458 l 1
 458 458 l 1xaa
 458 304 l 1
 435 304 l 1
 415 350 377 390 331 409 c 0
 311 418 284 422 258 422 c 0
 220 422 183 412 168 387 c 0
 164 380 162 373 162 366 c 0xca
 162 320 216 319 250 306 c 1
 388 266 l 2
 449 248 497 208 497 131 c 0
 497 102 486 67 475 50 c 0
 441 -2 383 -17 326 -17 c 0
 274 -17 224 -4 198 3 c 0
 169 11 146 17 131 17 c 0
 114 17 105 9 100 -12 c 1
 77 -12 l 1
 77 189 l 1
 100 189 l 1xd4
 122 63 203 34 309 27 c 1
 323 27 l 2
 360 27 391 37 410 58 c 0
 419 68 425 81 425 95 c 0
 425 126 399 143 375 150 c 2
 214 194 l 2
 148 212 83 253 83 336 c 0xcc
EndSplineSet
Validated: 1
EndChar

StartChar: t
Encoding: 116 116 87
Width: 566
GlyphClass: 2
Flags: W
HStem: -12 46<295.376 451.7> 410 46<57 169 274 513>
VStem: 169 105<56.3438 410> 238 36<526.539 648> 489 38<78.4698 180>
LayerCount: 2
Fore
SplineSet
339 -12 m 0xe8
 195 -12 169 34 169 104 c 2
 169 410 l 1xe8
 57 410 l 1
 57 456 l 1
 178 456 l 2
 199 456 238 559 238 612 c 2
 238 648 l 1
 274 648 l 1
 274 456 l 1xd8
 513 456 l 1
 513 410 l 1
 274 410 l 1
 274 110 l 2
 274 59 306 34 368 34 c 0
 457 34 489 66 489 180 c 1
 527 180 l 1
 527 32 485 -12 339 -12 c 0xe8
EndSplineSet
Validated: 1
EndChar

StartChar: u
Encoding: 117 117 88
Width: 566
GlyphClass: 2
Flags: W
HStem: -12 46<206.257 306.802> 0 46<492 550> 410 46<5 80 324 387>
VStem: 80 105<54.615 410> 387 105<46.3301 99 121.467 409.918>
AnchorPoint: "Bottom" 291 1 basechar 0
AnchorPoint: "Top" 291 508 basechar 0
LayerCount: 2
Fore
SplineSet
233 -12 m 0xb8
 122 -12 80 32 80 133 c 2
 80 388 l 2
 80 403 73 410 60 410 c 2
 5 410 l 1
 5 456 l 1
 185 456 l 1
 185 125 l 2
 185 64 209 34 258 34 c 0xb8
 287 34 315 50 339 80 c 0
 364 111 387 161 387 203 c 6
 387 389 l 6
 387 403 379 410 362 410 c 2
 324 410 l 1
 324 456 l 1
 492 456 l 5
 492 68 l 6
 492 53 501 46 520 46 c 2
 550 46 l 1
 550 0 l 1
 387 0 l 5x78
 387 99 l 5
 382 99 l 5
 362 55 312 -12 233 -12 c 0xb8
EndSplineSet
Validated: 1
EndChar

StartChar: v
Encoding: 118 118 89
Width: 566
GlyphClass: 2
Flags: W
HStem: -12 21G<257.979 325.968> 425 31<16 75.4941 201.658 258 362 419.323 489.268 550>
DStem2: 321 125 267 -12 0.411146 -0.911569<-303.321 0> 321 125 318 -12 0.370122 0.928983<0 287.594>
AnchorPoint: "Bottom" 299 0 basechar 0
AnchorPoint: "Top" 304 508 basechar 0
LayerCount: 2
Fore
SplineSet
236 425 m 2
 212 425 201 420 201 404 c 0
 201 396 204 385 211 369 c 2
 321 125 l 1
 406 336 l 2
 416 363 422 381 422 395 c 0
 422 417 409 425 387 425 c 2
 362 425 l 1
 362 456 l 1
 550 456 l 1
 550 425 l 1
 530 425 l 2
 497 425 491 423 469 367 c 2
 318 -12 l 1
 267 -12 l 1
 92 376 l 2
 74 417 69 425 44 425 c 2
 16 425 l 1
 16 456 l 1
 258 456 l 1
 258 425 l 1
 236 425 l 2
EndSplineSet
Validated: 1
EndChar

StartChar: w
Encoding: 119 119 90
Width: 566
GlyphClass: 2
Flags: W
HStem: -12 21G<158.776 211.894 365.967 414.488> 425 31<14 50.8374 155.008 189 232 271.328 346.36 385 430 468.412 526.201 552>
VStem: 273 73<337.26 424.854>
DStem2: 208 174 65 367 0.252734 -0.967536<-227.363 0> 208 174 295 290 0.282682 0.959214<0 135.862> 360 369 295 290 0.244046 -0.969764<60.7483 210.278> 411 165 409 -12 0.264624 0.964352<0 236.032>
AnchorPoint: "Bottom" 310 0 basechar 0
AnchorPoint: "Top" 310 508 basechar 0
LayerCount: 2
Fore
SplineSet
180 425 m 2
 160 425 153 414 153 395 c 0
 153 387 155 379 157 369 c 2
 208 174 l 1
 256 336 l 2
 268 363 273 382 273 395 c 0
 273 420 264 425 247 425 c 2
 232 425 l 1
 232 456 l 1
 385 456 l 1
 385 425 l 1
 359 425 l 2
 350 425 346 417 346 403 c 0
 346 394 351 383 360 369 c 2
 411 165 l 1
 459 336 l 2
 465 360 471 379 471 394 c 0
 471 413 463 425 439 425 c 2
 430 425 l 5
 430 456 l 5
 552 456 l 1
 552 425 l 1
 540 425 l 2
 531 425 529 423 513 367 c 2
 409 -12 l 1
 371 -12 l 1
 295 290 l 1
 206 -12 l 1
 164 -12 l 1
 65 367 l 1
 53 420 40 425 32 425 c 2
 14 425 l 1
 14 456 l 1
 189 456 l 1
 189 425 l 1
 180 425 l 2
EndSplineSet
Validated: 1
EndChar

StartChar: x
Encoding: 120 120 91
Width: 566
GlyphClass: 2
Flags: W
HStem: 0 31<41 97.324 167.008 222 325 349.974 481.767 540> 425 31<27 77.5006 214.24 244 334 374.996 447.619 504>
DStem2: 129 86 189 83 0.619471 0.785019<-7.56 149.447 262.688 406.4> 292 292 229 213 0.610168 -0.792272<-136.895 0 74.755 228.48>
AnchorPoint: "Bottom" 292 0 basechar 0
AnchorPoint: "Top" 292 508 basechar 0
LayerCount: 2
Fore
SplineSet
41 0 m 1
 41 31 l 1
 65 31 l 2
 87 31 94 39 129 86 c 2
 229 213 l 1
 83 403 l 2
 70 420 66 425 54 425 c 2
 27 425 l 1
 27 456 l 1
 244 456 l 1
 244 425 l 1
 227 425 l 2
 218 425 214 416 214 405 c 0
 214 399 215 391 220 385 c 2
 292 292 l 1
 358 375 l 2
 368 388 375 401 375 410 c 0
 375 419 369 425 353 425 c 2
 334 425 l 1
 334 456 l 1
 504 456 l 1
 504 425 l 1
 481 425 l 2
 457 425 445 409 421 377 c 2
 323 252 l 1
 474 56 l 2
 488 37 494 31 519 31 c 2
 540 31 l 1
 540 0 l 1
 325 0 l 1
 325 31 l 1
 339 31 l 2
 346 31 350 37 350 48 c 0
 350 54 348 60 341 68 c 2
 260 173 l 1
 189 83 l 2
 175 67 167 54 167 46 c 0
 167 36 178 31 204 31 c 2
 222 31 l 1
 222 0 l 1
 41 0 l 1
EndSplineSet
Validated: 1
EndChar

StartChar: y
Encoding: 121 121 92
Width: 550
GlyphClass: 2
Flags: W
HStem: -238 46<83 191.825> 425 31<2 56.5669 186.215 253 383 436.175 511.354 546>
VStem: 0 119<-191.927 -115.235>
DStem2: 196 366 82 367 0.393101 -0.919495<-37.0316 297.935> 222 -119 276 -130 0.398591 0.917129<-81.733 86.0053 229.786 559.644>
AnchorPoint: "Bottom" 397 5 basechar 0
AnchorPoint: "Top" 310 508 basechar 0
LayerCount: 2
Fore
SplineSet
114 -238 m 0
 52 -238 0 -199 0 -143 c 0
 0 -110 30 -82 70 -82 c 0
 111 -82 133 -102 133 -131 c 0
 133 -139 131 -149 125 -159 c 0
 121 -166 119 -171 119 -177 c 0
 119 -187 125 -192 138 -192 c 0
 189 -192 204 -159 222 -119 c 2
 256 -40 l 1
 82 367 l 2
 55 419 50 425 16 425 c 2
 2 425 l 1
 2 456 l 1
 253 456 l 1
 253 425 l 1
 224 425 l 2
 194 425 185 416 185 402 c 0
 185 393 191 377 196 366 c 2
 313 92 l 1
 424 345 l 2
 431 365 438 384 438 398 c 0
 438 415 430 425 407 425 c 2
 383 425 l 1
 383 456 l 1
 546 456 l 1
 546 425 l 1
 534 425 l 6
 517 425 516 423 492 367 c 2
 276 -130 l 2
 241 -205 213 -238 114 -238 c 0
EndSplineSet
Validated: 1
EndChar

StartChar: z
Encoding: 122 122 93
Width: 550
GlyphClass: 2
Flags: W
HStem: 0 46<195 424.4> 410 46<152.473 373>
VStem: 79 26<277 311> 468 26<145 179>
DStem2: 56 34 195 46 0.644574 0.764542<98.7703 491.798>
AnchorPoint: "Bottom" 296 0 basechar 0
AnchorPoint: "Top" 296 508 basechar 0
LayerCount: 2
Fore
SplineSet
56 0 m 1
 56 34 l 1
 373 410 l 1
 227 410 l 2
 153 410 122 368 109 311 c 1
 105 277 l 1
 79 277 l 1
 87 456 l 1
 492 456 l 1
 492 399 l 1
 195 46 l 1
 363 46 l 2
 428 46 449 91 461 145 c 2
 468 179 l 1
 494 179 l 1
 487 0 l 1
 56 0 l 1
EndSplineSet
Validated: 1
EndChar

StartChar: braceleft
Encoding: 123 123 94
Width: 566
GlyphClass: 2
Flags: W
HStem: -196 31<366.974 396.71> 254 23<160 216.201> 699 31<361.832 396.71>
VStem: 214 80<-101.492 2.16043 529.866 633.86> 262 82<93.2372 200.296 328.314 435.245>
LayerCount: 2
Fore
SplineSet
160 277 m 1xe8
 195 277 223 282 239 291 c 0
 255 300 262 321 262 354 c 0xe8
 262 375 252 408 233 453 c 0
 220 500 214 535 214 560 c 0
 214 640 274 697 394 730 c 1
 406 699 l 1
 357 684 294 666 294 606 c 0xf0
 294 582 307 549 326 506 c 0
 339 461 344 427 344 403 c 0
 344 331 302 287 217 267 c 1
 217 264 l 1
 302 244 344 197 344 122 c 0xe8
 344 98 339 66 326 24 c 0
 306 -17 294 -50 294 -74 c 0
 294 -99 303 -116 322 -129 c 0
 341 -142 369 -153 406 -165 c 1
 394 -196 l 1
 274 -163 214 -107 214 -28 c 0xf0
 214 -3 220 31 233 76 c 0
 252 119 262 152 262 173 c 0
 262 205 253 226 237 237 c 0
 221 248 194 254 160 254 c 1
 160 277 l 1xe8
EndSplineSet
Validated: 1
EndChar

StartChar: bar
Encoding: 124 124 95
Width: 566
GlyphClass: 2
Flags: W
HStem: 710 20G<252 314>
VStem: 252 62<-198 730>
LayerCount: 2
Fore
SplineSet
252 730 m 1
 314 730 l 5
 314 -198 l 5
 252 -198 l 1
 252 730 l 1
EndSplineSet
Validated: 1
EndChar

StartChar: braceright
Encoding: 125 125 96
Width: 566
GlyphClass: 2
Flags: W
HStem: -196 31<167.742 200.584> 254 23<339.299 406> 699 31<167.742 195.692>
VStem: 212 80<100.559 202.046 328.314 431.098> 260 82<-102.28 7.53038 524.937 635.297>
LayerCount: 2
Fore
SplineSet
406 254 m 1xf0
 367 254 337 249 319 240 c 0
 301 231 292 210 292 178 c 0xf0
 292 157 303 124 323 79 c 0
 336 32 342 -3 342 -28 c 0
 342 -107 284 -163 170 -196 c 1
 160 -165 l 1
 176 -159 190 -154 200 -150 c 0
 210 -146 220 -140 230 -133 c 0
 240 -126 248 -117 253 -107 c 0
 258 -97 260 -87 260 -74 c 0xe8
 260 -50 250 -16 230 27 c 0
 217 71 212 104 212 128 c 0
 212 199 254 244 339 264 c 1
 339 267 l 1
 254 287 212 331 212 403 c 0xf0
 212 427 217 461 230 506 c 0
 250 549 260 582 260 606 c 0
 260 631 253 650 236 663 c 0
 219 676 193 687 160 699 c 1
 170 730 l 1
 284 697 342 640 342 560 c 0xe8
 342 535 336 500 323 453 c 0
 303 408 292 375 292 354 c 0
 292 321 301 300 319 291 c 0
 337 282 367 277 406 277 c 1
 406 254 l 1xf0
EndSplineSet
Validated: 1
EndChar

StartChar: asciitilde
Encoding: 126 126 97
Width: 566
GlyphClass: 2
Flags: W
HStem: 158 84<385.032 488.327> 278 84<77.6728 175.117>
VStem: 29 44<188.689 273.177> 493 44<246.823 331.311>
LayerCount: 2
Fore
SplineSet
537 269 m 0
 537 202 491 158 429 158 c 0
 395 158 345 179 321 191 c 0
 287 206 221 235 181 253 c 0
 160 264 138 278 111 278 c 0
 88 278 73 259 73 234 c 0
 73 210 86 191 112 177 c 1
 101 151 l 1
 53 173 29 205 29 251 c 0
 29 318 75 362 137 362 c 0
 173 362 232 341 315 298 c 0
 384 261 431 242 455 242 c 0
 478 242 493 261 493 286 c 0
 493 310 480 329 454 343 c 1
 465 369 l 1
 513 347 537 315 537 269 c 0
EndSplineSet
Validated: 1
EndChar

StartChar: circumflex
Encoding: 710 710 160
Width: 440
GlyphClass: 2
Flags: W
HStem: 487 206
VStem: 100 240
LayerCount: 2
Fore
SplineSet
238 693 m 1
 260 607 294 543 340 503 c 1
 332 487 l 1
 290 516 253 555 220 603 c 1
 187 555 150 516 108 487 c 1
 100 503 l 1
 146 543 180 607 202 693 c 1
 238 693 l 1
EndSplineSet
Validated: 1
EndChar

StartChar: tilde
Encoding: 732 732 161
Width: 444
GlyphClass: 2
Flags: W
HStem: 537 71<248.412 320.154> 590 71<124.367 199.486>
VStem: 86 30<537 578.641> 328 30<619.359 661>
LayerCount: 2
Fore
SplineSet
358 661 m 1x70
 358 595 330 537 279 537 c 0xb0
 219.629368767 537 186.809493157 590 159 590 c 0x70
 126.848484848 590 122.515151515 572 116 537 c 1
 86 537 l 1xb0
 86 603 117.544303797 661 175 661 c 4x70
 228.937146443 661 261.758601285 608 288 608 c 0xb0
 315.606060606 608 321.939393939 625 328 661 c 1
 358 661 l 1x70
EndSplineSet
Validated: 1
EndChar

StartChar: breve
Encoding: 728 728 162
Width: 444
GlyphClass: 2
Flags: W
HStem: 518 55<146.111 296.134>
VStem: 86 30<612.91 673> 328 30<616.311 673>
LayerCount: 2
Fore
SplineSet
222 518 m 256
 117 518 86 596 86 673 c 1
 116 673 l 1
 124 616 131 573 222 573 c 256
 306 573 320 616 328 673 c 1
 358 673 l 1
 358 596 319 518 222 518 c 256
EndSplineSet
Validated: 1
EndChar

StartChar: dotaccent
Encoding: 729 729 163
Width: 457
GlyphClass: 2
Flags: W
HStem: 519 151<174.705 282.294>
VStem: 153 151<540.706 648.295>
LayerCount: 2
Fore
SplineSet
228 519 m 256
 207 519 189 525 174 540 c 0
 159 555 153 574 153 595 c 256
 153 616 159 634 174 649 c 0
 189 664 207 670 228 670 c 256
 249 670 268 664 283 649 c 0
 298 634 304 616 304 595 c 256
 304 574 298 555 283 540 c 0
 268 525 249 519 228 519 c 256
EndSplineSet
Validated: 1
EndChar

StartChar: ring
Encoding: 730 730 164
Width: 444
GlyphClass: 2
Flags: W
HStem: 492 36<180.073 263.927> 664 36<179.874 264.126>
VStem: 120 40<546.983 645.238> 284 40<546.983 645.238>
LayerCount: 2
Fore
SplineSet
222 492 m 0
 165 492 120 540 120 598 c 0
 120 655 165 700 222 700 c 0
 279 700 324 655 324 598 c 0
 324 540 279 492 222 492 c 0
222 528 m 0
 256 528 284 557 284 596 c 0
 284 635 257 664 222 664 c 0
 187 664 160 635 160 596 c 0
 160 557 188 528 222 528 c 0
EndSplineSet
Validated: 1
EndChar

StartChar: hungarumlaut
Encoding: 733 733 165
Width: 440
GlyphClass: 2
Flags: W
HStem: 466 258
VStem: 150 281
LayerCount: 2
Fore
SplineSet
405 724 m 0
 423 724 431 709 431 679 c 0
 431 656 423 635 405 615 c 2
 287 466 l 1
 275 482 l 1
 360 677 l 2
 374 708 389 724 405 724 c 0
279 724 m 0
 297 724 305 709 305 679 c 0
 305 656 297 635 279 615 c 2
 162 466 l 1
 150 482 l 1
 234 677 l 2
 248 708 263 724 279 724 c 0
EndSplineSet
Validated: 1
EndChar

StartChar: ogonek
Encoding: 731 731 166
Width: 444
GlyphClass: 2
Flags: W
HStem: -229 60<164.058 222.984>
VStem: 87 72<-164.848 -82.7153>
LayerCount: 2
Fore
SplineSet
169 -229 m 4
 122 -229 87 -193 87 -145 c 4
 87 -96 134 -47 163 -25 c 4
 181 -11 203 4 231 21 c 5
 240 7 l 5
 212 -15 192 -35 179 -55 c 4
 166 -75 159 -97 159 -122 c 4
 159 -153 173 -169 200 -169 c 4
 218 -169 235 -158 253 -135 c 5
 266 -145 l 5
 241 -201 208 -229 169 -229 c 4
EndSplineSet
Validated: 1
EndChar

StartChar: caron
Encoding: 711 711 167
Width: 440
GlyphClass: 2
Flags: W
HStem: 487 206
VStem: 98 244
LayerCount: 2
Fore
SplineSet
98 679 m 1
 110 693 l 1
 220 567 l 1
 330 693 l 1
 342 679 l 1
 238 487 l 1
 202 487 l 1
 98 679 l 1
EndSplineSet
Validated: 1
EndChar

StartChar: softhyphen
Encoding: 173 173 168
Width: 566
GlyphClass: 2
Flags: W
HStem: 236 52<53 513>
LayerCount: 2
Fore
SplineSet
53 236 m 5
 53 288 l 5
 513 288 l 5
 513 236 l 5
 53 236 l 5
EndSplineSet
Validated: 1
Colour: ffff
EndChar

StartChar: uni02BB
Encoding: 699 699 331
Width: 203
GlyphClass: 2
Flags: W
HStem: 491.4 116.64<78.2774 151.255>
VStem: 38.5205 38.2393<553.092 656.486>
LayerCount: 2
Fore
SplineSet
163.479492188 552.599609375 m 0
 163.479492188 519.049454719 141.773203763 491.400390625 110.6796875 491.400390625 c 0
 64.5303230465 491.400390625 38.5205078125 528.38485946 38.5205078125 577.799804688 c 0
 38.5205078125 650.379711914 82.0642177037 703.859643555 124.080078125 730.599609375 c 1
 135.520507812 715.48046875 l 1
 107.284826502 698.076076267 76.759765625 668.488609047 76.759765625 632.51953125 c 0
 76.759765625 613.940568499 94.589332796 608.040039062 122.120117188 608.040039062 c 0
 148.542541936 608.040039062 163.479492188 579.563885501 163.479492188 552.599609375 c 0
EndSplineSet
Validated: 1
EndChar

StartChar: afii57929
Encoding: 700 700 332
Width: 203
GlyphClass: 2
Flags: W
HStem: 443 277
VStem: 110 54<541.445 654>
LayerCount: 2
Fore
SplineSet
38 645 m 0
 38 685.521546002 58.5532810245 720 95 720 c 0
 140 720 164 678 164 630 c 0
 164 544.374515387 106.773655459 474.605071427 51 443 c 5
 40 455 l 1
 69 470 110 506 110 545 c 0
 110 588.854812659 38 573.571872733 38 645 c 0
EndSplineSet
Validated: 1
EndChar

StartChar: afii64937
Encoding: 701 701 333
Width: 203
GlyphClass: 2
Flags: W
HStem: 443 277
VStem: 38 54<539.688 643.5>
LayerCount: 2
Fore
SplineSet
164 645 m 0
 164 627 160 611 154 596 c 0
 148 581 139 575 128 575 c 0
 116 575 107 573 102 569 c 0
 96 564 92 556 92 545 c 0
 92 530 100 513 114 496 c 0
 128 479 144 465 163 455 c 1
 152 443 l 1
 122 460 95 485 72 519 c 0
 49 553 38 590 38 630 c 0
 38 657 45 677 57 694 c 0
 69 711 88 720 108 720 c 0
 124 720 137 712 148 700 c 0
 159 688 164 669 164 645 c 0
EndSplineSet
Validated: 1
EndChar

StartChar: uni02BE
Encoding: 702 702 334
Width: 203
GlyphClass: 2
Flags: W
HStem: 500 36<42 93.8366> 682 36<42 93.8366>
VStem: 119 42<557.611 660.389>
LayerCount: 2
Fore
SplineSet
42 500 m 1
 42 536 l 1
 64 536 82 542 97 556 c 0
 112 570 119 588 119 609 c 256
 119 630 112 648 97 662 c 0
 82 676 64 682 42 682 c 1
 42 718 l 1
 73 718 101 708 125 687 c 0
 149 666 161 640 161 609 c 256
 161 578 149 552 125 531 c 0
 101 510 73 500 42 500 c 1
EndSplineSet
Validated: 1
EndChar

StartChar: uni02BF
Encoding: 703 703 335
Width: 203
GlyphClass: 2
Flags: W
HStem: 500 36<109.163 161> 682 36<109.163 161>
VStem: 42 42<557.611 660.389>
LayerCount: 2
Fore
SplineSet
42 609 m 256
 42 640 54 666 78 687 c 0
 102 708 130 718 161 718 c 1
 161 682 l 1
 139 682 121 676 106 662 c 0
 91 648 84 630 84 609 c 256
 84 588 91 570 106 556 c 0
 121 542 139 536 161 536 c 1
 161 500 l 1
 130 500 102 510 78 531 c 0
 54 552 42 578 42 609 c 256
EndSplineSet
Validated: 1
EndChar

StartChar: acutecomb
Encoding: 769 769 337
Width: 0
GlyphClass: 4
Flags: W
HStem: 466 258
VStem: -263 155
AnchorPoint: "TopMark" -200 764 basemark 0
AnchorPoint: "TopMark" -200 466 mark 0
AnchorPoint: "Top" -200 466 mark 0
LayerCount: 2
Fore
SplineSet
-134 724 m 0
 -117 724 -108 709 -108 679 c 0
 -108 656 -117 635 -134 615 c 2
 -251 466 l 1
 -263 482 l 1
 -179 677 l 2
 -165 708 -150 724 -134 724 c 0
EndSplineSet
Validated: 1
Colour: ffff
EndChar

StartChar: macroncmb
Encoding: 772 772 340
Width: 0
GlyphClass: 4
Flags: W
HStem: 564 52<-477 -99>
AnchorPoint: "GreekTopMarkSunken" -291 642 basemark 0
AnchorPoint: "GreekTopMark" -291 662 basemark 0
AnchorPoint: "TopMark" -291 662 basemark 0
AnchorPoint: "TopMark" -291 500 mark 0
AnchorPoint: "GreekTop" -291 500 mark 0
AnchorPoint: "Top" -291 500 mark 0
LayerCount: 2
Fore
SplineSet
-477 616 m 1
 -99 616 l 1
 -99 564 l 1
 -477 564 l 1
 -477 616 l 1
EndSplineSet
Validated: 1
Colour: ffff
EndChar

StartChar: uni0305
Encoding: 773 773 341
Width: 0
GlyphClass: 2
Flags: W
HStem: 814 52<-478 0>
LayerCount: 2
Fore
SplineSet
-478 866 m 1
 0 866 l 1
 0 814 l 1
 -478 814 l 1
 -478 866 l 1
EndSplineSet
Validated: 1
Colour: ffff
EndChar

StartChar: uni0308
Encoding: 776 776 344
Width: 34
GlyphClass: 4
Flags: W
HStem: 519 151<-460.295 -352.706 -232.294 -124.705>
VStem: -482 151<540.706 648.295> -254 151<540.706 648.295>
AnchorPoint: "TopMark" -293 715 basemark 0
AnchorPoint: "TopMark" -293 483 mark 0
AnchorPoint: "Top" -293 483 mark 0
LayerCount: 2
Fore
SplineSet
-178 670 m 260
 -157 670 -139 664 -124 649 c 4
 -109 634 -103 616 -103 595 c 260
 -103 574 -109 555 -124 540 c 4
 -139 525 -157 519 -178 519 c 260
 -199 519 -218 525 -233 540 c 4
 -248 555 -254 574 -254 595 c 260
 -254 616 -248 634 -233 649 c 4
 -218 664 -199 670 -178 670 c 260
-407 670 m 260
 -386 670 -367 664 -352 649 c 4
 -337 634 -331 616 -331 595 c 260
 -331 574 -337 555 -352 540 c 4
 -367 525 -386 519 -407 519 c 260
 -428 519 -446 525 -461 540 c 4
 -476 555 -482 574 -482 595 c 260
 -482 616 -476 634 -461 649 c 4
 -446 664 -428 670 -407 670 c 260
EndSplineSet
Validated: 1
Colour: ffff
EndChar

StartChar: uni0317
Encoding: 791 791 354
Width: 0
GlyphClass: 4
Flags: W
HStem: -282 258
VStem: -263 155
AnchorPoint: "Bottom" -240 40 mark 0
LayerCount: 2
Fore
SplineSet
-134 -24 m 0
 -117 -24 -108 -39 -108 -69 c 0
 -108 -92 -117 -113 -134 -133 c 2
 -251 -282 l 1
 -263 -266 l 1
 -179 -71 l 2
 -165 -40 -150 -24 -134 -24 c 0
EndSplineSet
Validated: 1
Colour: ffff
EndChar

StartChar: uni0324
Encoding: 804 804 356
Width: 34
GlyphClass: 4
Flags: W
HStem: -229 151<-460.295 -352.706 -232.294 -124.705>
VStem: -482 151<-207.294 -99.7053> -254 151<-207.294 -99.7053>
AnchorPoint: "Bottom" -293 23 mark 0
LayerCount: 2
Fore
SplineSet
-178 -78 m 256
 -157 -78 -139 -84 -124 -99 c 0
 -109 -114 -103 -132 -103 -153 c 256
 -103 -174 -109 -193 -124 -208 c 0
 -139 -223 -157 -229 -178 -229 c 256
 -199 -229 -218 -223 -233 -208 c 0
 -248 -193 -254 -174 -254 -153 c 256
 -254 -132 -248 -114 -233 -99 c 0
 -218 -84 -199 -78 -178 -78 c 256
-407 -78 m 256
 -386 -78 -367 -84 -352 -99 c 0
 -337 -114 -331 -132 -331 -153 c 256
 -331 -174 -337 -193 -352 -208 c 0
 -367 -223 -386 -229 -407 -229 c 256
 -428 -229 -446 -223 -461 -208 c 0
 -476 -193 -482 -174 -482 -153 c 256
 -482 -132 -476 -114 -461 -99 c 0
 -446 -84 -428 -78 -407 -78 c 256
EndSplineSet
Validated: 1
Colour: ffff
EndChar

StartChar: uni0327
Encoding: 807 807 359
Width: 0
GlyphClass: 4
Flags: W
HStem: -218 38<-345.79 -264.464>
VStem: -254 86<-171.248 -89.6649>
AnchorPoint: "Bottom" -281 4 mark 0
LayerCount: 2
Fore
SplineSet
-168 -144 m 0
 -168 -198 -227 -218 -288 -218 c 0
 -323 -218 -361 -193 -379 -172 c 1
 -368 -156 l 1
 -355 -169 -336 -180 -311 -180 c 0
 -279 -180 -254 -165 -254 -130 c 0
 -254 -113 -257 -101 -264 -93 c 0
 -278 -78 -312 -73 -335 -70 c 1
 -311 4 l 1
 -271 4 l 1
 -289 -51 l 1
 -267 -55 l 2
 -215 -65 -168 -89 -168 -144 c 0
EndSplineSet
Validated: 1
Colour: ffff
EndChar

StartChar: uni0331
Encoding: 817 817 366
Width: 42
GlyphClass: 4
Flags: W
HStem: -184 52<-507 -129>
AnchorPoint: "Bottom" -404 6 mark 0
LayerCount: 2
Fore
SplineSet
-507 -132 m 1
 -129 -132 l 1
 -129 -184 l 1
 -507 -184 l 1
 -507 -132 l 1
EndSplineSet
Validated: 1
Colour: ffff
EndChar

StartChar: uni0333
Encoding: 819 819 368
Width: 0
GlyphClass: 2
Flags: W
HStem: -280 55<-478 0> -166 55<-478 0>
LayerCount: 2
Fore
SplineSet
-478 -280 m 1
 -478 -225 l 1
 0 -225 l 1
 0 -280 l 1
 -478 -280 l 1
-478 -166 m 1
 -478 -111 l 1
 0 -111 l 1
 0 -166 l 1
 -478 -166 l 1
EndSplineSet
Validated: 1
Colour: ffff
EndChar

StartChar: uni0343
Encoding: 835 835 371
Width: 2
GlyphClass: 4
Flags: W
HStem: 609 121<-295.6 -231.179>
VStem: -231 38<536.435 634>
AnchorPoint: "GreekTopMarkSunken" -262 471 mark 0
AnchorPoint: "GreekTopSunken" -262 471 mark 0
LayerCount: 2
Fore
SplineSet
-269 730 m 0
 -247 730 -230 719 -215 697 c 0
 -200 675 -193 649 -193 619 c 0
 -193 556 -219 506 -272 471 c 1
 -286 488 l 1
 -249 514 -231 546 -231 584 c 0
 -231 601 -236 609 -246 609 c 0
 -251 609 -256 607 -263 602 c 0
 -270 598 -277 596 -283 596 c 0
 -295 596 -305 601 -312 611 c 0
 -320 621 -325 637 -325 658 c 0
 -325 680 -320 698 -309 711 c 0
 -298 724 -285 730 -269 730 c 0
EndSplineSet
Validated: 1
Colour: ffff
EndChar

StartChar: Dotaccent
Encoding: 61421 61421 832
Width: 440
GlyphClass: 2
Flags: W
HStem: 784 130<174.565 265.435>
VStem: 155 130<803.565 894.435>
LayerCount: 2
Fore
SplineSet
220 784 m 256
 202 784 186 791 174 803 c 0
 162 815 155 831 155 849 c 256
 155 867 162 883 174 895 c 0
 186 907 202 914 220 914 c 256
 238 914 254 907 266 895 c 0
 278 883 285 867 285 849 c 256
 285 831 278 815 266 803 c 0
 254 791 238 784 220 784 c 256
EndSplineSet
Validated: 1
EndChar

StartChar: Breve
Encoding: 61422 61422 833
Width: 440
GlyphClass: 2
Flags: W
HStem: 756 57<155.673 284.327>
VStem: 73 34<875.446 921> 333 34<875.446 921>
LayerCount: 2
Fore
SplineSet
220 756 m 256
 173 756 137 774 111 810 c 0
 85 846 73 882 73 921 c 1
 107 921 l 1
 113 893 125 868 144 846 c 0
 163 824 189 813 220 813 c 256
 251 813 277 824 296 846 c 0
 315 868 327 893 333 921 c 1
 367 921 l 1
 367 882 355 846 329 810 c 0
 303 774 267 756 220 756 c 256
EndSplineSet
Validated: 1
EndChar

StartChar: Ring
Encoding: 61427 61427 834
Width: 440
GlyphClass: 2
Flags: W
HStem: 751 29<178.211 261.789> 921 29<178.332 261.668>
VStem: 124 29<805.638 895.901> 287 29<805.638 895.901>
LayerCount: 2
Fore
SplineSet
220 751 m 256
 194 751 171 761 152 780 c 0
 133 799 124 824 124 852 c 0
 124 879 134 902 152 921 c 0
 170 940 193 950 220 950 c 256
 247 950 270 940 288 921 c 0
 306 902 316 879 316 852 c 0
 316 824 307 799 288 780 c 0
 269 761 246 751 220 751 c 256
220 780 m 256
 239 780 255 786 268 800 c 0
 281 814 287 830 287 851 c 0
 287 871 281 888 268 901 c 0
 255 914 240 921 220 921 c 256
 200 921 185 914 172 901 c 0
 159 888 153 871 153 851 c 0
 153 830 159 814 172 800 c 0
 185 786 201 780 220 780 c 256
EndSplineSet
Validated: 1
EndChar

StartChar: Tilde
Encoding: 61429 61429 835
Width: 440
GlyphClass: 2
Flags: W
HStem: 804 65<244.507 335.716> 852 65<112.507 204.493>
VStem: 80 26<804 841.024> 342 26<878.855 917>
LayerCount: 2
Fore
SplineSet
292 804 m 0xb0
 272 804 245 812 211 827 c 0
 178 844 155 852 140 852 c 0x70
 122 852 110 836 106 804 c 1
 80 804 l 1xb0
 80 835 87 862 100 884 c 0
 113 906 133 917 157 917 c 0x70
 177 917 204 909 238 894 c 0
 271 877 294 869 309 869 c 0xb0
 327 869 338 885 342 917 c 1
 368 917 l 1x70
 368 886 361 859 348 837 c 0
 335 815 316 804 292 804 c 0xb0
EndSplineSet
Validated: 1
EndChar

StartChar: Circumflex
Encoding: 61431 61431 836
Width: 440
GlyphClass: 2
Flags: W
HStem: 741 199
VStem: 74 292
LayerCount: 2
Fore
SplineSet
238 940 m 1
 267 864 310 805 366 761 c 1
 356 741 l 1
 340 749 318 764 290 789 c 0
 262 814 239 838 220 862 c 1
 201 838 178 814 150 789 c 0
 122 764 100 749 84 741 c 1
 74 761 l 1
 130 805 173 864 202 940 c 1
 238 940 l 1
EndSplineSet
Validated: 1
EndChar

StartChar: commaaccent
Encoding: 63171 63171 837
Width: 440
GlyphClass: 2
Flags: W
HStem: -241 212
VStem: 229 44<-173.867 -81.1808>
LayerCount: 2
Fore
SplineSet
167 -86 m 4
 167 -53.9642940749 184.674742293 -29 215 -29 c 0
 252.10016806 -29 273 -62.3615035295 273 -100 c 0
 273 -165.462053113 224.37593812 -220.594587227 178 -241 c 1
 169 -227 l 1
 192.562155484 -216.691556976 229 -190.993634655 229 -161 c 0
 229 -124.775562651 167 -143.074338408 167 -86 c 4
EndSplineSet
Validated: 1
EndChar

StartChar: Acute
Encoding: 63177 63177 838
Width: 440
GlyphClass: 2
Flags: W
HStem: 739 221
VStem: 205 155
LayerCount: 2
Fore
SplineSet
334 960 m 0
 351 960 360 947 360 921 c 0
 360 902 351 884 334 866 c 2
 217 739 l 1
 205 753 l 1
 289 920 l 2
 303 947 318 960 334 960 c 0
EndSplineSet
Validated: 1
EndChar

StartChar: Caron
Encoding: 63178 63178 839
Width: 440
GlyphClass: 2
Flags: W
HStem: 741 199
VStem: 73 294
LayerCount: 2
Fore
SplineSet
73 922 m 1
 84 940 l 1
 220 819 l 1
 356 940 l 1
 367 922 l 1
 238 741 l 1
 202 741 l 1
 73 922 l 1
EndSplineSet
Validated: 1
EndChar

StartChar: Grave
Encoding: 63182 63182 840
Width: 440
GlyphClass: 2
Flags: W
HStem: 739 221
VStem: 80 155
LayerCount: 2
Fore
SplineSet
106 960 m 0
 122 960 137 947 151 920 c 2
 235 753 l 1
 223 739 l 1
 106 866 l 2
 89 884 80 902 80 921 c 0
 80 947 89 960 106 960 c 0
EndSplineSet
Validated: 1
EndChar

StartChar: Macron
Encoding: 63184 63184 841
Width: 440
GlyphClass: 2
Flags: W
HStem: 817 48<50 390>
LayerCount: 2
Fore
SplineSet
50 865 m 1
 390 865 l 1
 390 817 l 1
 50 817 l 1
 50 865 l 1
EndSplineSet
Validated: 1
EndChar

StartChar: cyrflex
Encoding: 63189 63189 842
Width: 440
GlyphClass: 2
Flags: W
HStem: 607 69<170.241 269.759>
VStem: 98 244
LayerCount: 2
Fore
SplineSet
220 676 m 256
 248 676 273 658 295 623 c 0
 317 588 333 553 342 517 c 1
 327 511 l 1
 318 535 304 557 285 577 c 0
 266 597 245 607 220 607 c 256
 195 607 174 597 155 577 c 0
 136 557 122 535 113 511 c 1
 98 517 l 1
 107 553 123 588 145 623 c 0
 167 658 192 676 220 676 c 256
EndSplineSet
Validated: 1
EndChar

StartChar: dblgrave
Encoding: 63190 63190 843
Width: 440
GlyphClass: 2
Flags: W
HStem: 485 221
VStem: 9 281
LayerCount: 2
Fore
SplineSet
161 706 m 0
 177 706 192 693 206 666 c 2
 290 499 l 1
 278 485 l 1
 161 612 l 2
 144 630 135 648 135 667 c 0
 135 693 144 706 161 706 c 0
35 706 m 0
 51 706 66 693 80 666 c 2
 165 499 l 1
 153 485 l 1
 35 612 l 2
 18 630 9 648 9 667 c 0
 9 693 18 706 35 706 c 0
EndSplineSet
Validated: 1
EndChar

StartChar: u1D50A
Encoding: 120074 120074 844
Width: 832
GlyphClass: 2
Flags: W
HStem: -18 48<351.433 562.397> 102 32<342.359 397.094> 427 101<565.5 632.97> 570 90<554 601.627> 652 90<441.328 500.5> 652 44<260.779 338.854>
VStem: 43 110<261.605 485.678> 313 85<489.65 604.118> 427 90<186.623 280.287> 695 110<202.809 361.411>
DStem2: 424 481 338 402 0.467593 -0.883944<-60.8518 88.1189 118.532 221.68> 465 403 479 376 0.805651 0.59239<0 99.9261>
LayerCount: 2
Fore
SplineSet
497 742 m 0xebc0
 504 742 515 734 530 718 c 2
 567 679 l 2
 579 666 589 660 597 660 c 0
 612 660 624 664 634 671 c 0
 644 678 652 682 659 682 c 0
 667 682 672 677 672 667 c 256
 672 657 666 647 653 636 c 2
 587 579 l 2
 580 573 572 570 563 570 c 0xf3c0
 545 570 530 578 518 594 c 2
 485 628 l 2
 469 644 456 652 446 652 c 256xebc0
 436 652 426 645 415 632 c 0
 404 619 398 603 398 584 c 0
 398 545 407 510 424 481 c 2
 465 403 l 1
 533 453 l 2
 545 464 557 476 568 489 c 0
 589 515 606 528 619 528 c 0
 668 528 712 506 749 462 c 0
 786 418 805 369 805 313 c 0
 805 224 769 147 696 81 c 0
 623 15 537 -18 439 -18 c 0
 329 -18 236 19 159 92 c 0
 82 165 43 255 43 362 c 0
 43 452 73 530 131 596 c 0
 189 662 252 696 318 696 c 0
 335 696 343 690 343 678 c 0
 343 672 342 667 339 665 c 0
 336 663 326 658 310 652 c 0xe7c0
 281 643 255 630 234 611 c 0
 213 592 196 571 185 547 c 0
 174 523 166 498 161 475 c 0
 156 452 153 428 153 403 c 0
 153 297 184 208 244 137 c 0
 304 66 372 30 447 30 c 0
 527 30 588 53 631 99 c 0
 674 145 695 204 695 273 c 0
 695 321 682 358 655 386 c 0
 628 414 600 427 572 427 c 0
 559 427 542 421 524 408 c 2
 479 376 l 1
 497 343 l 2
 511 321 517 294 517 260 c 0
 517 214 497 177 457 147 c 0
 417 117 385 102 361 102 c 0
 348 102 342 106 342 115 c 0
 342 123 348 129 360 134 c 0
 365 135 373 137 383 141 c 0
 397 146 408 157 416 175 c 0
 424 193 427 212 427 231 c 0
 427 248 417 267 396 292 c 2
 338 402 l 2
 322 439 313 480 313 525 c 0
 313 573 336 620 383 669 c 0
 430 718 468 742 497 742 c 0xebc0
EndSplineSet
Validated: 1
EndChar

StartChar: u1D510
Encoding: 120080 120080 845
Width: 1092
GlyphClass: 2
Flags: W
HStem: -18 95<209.5 290.615 492 578.003> -18 58<911.626 978.952> 60 95<140 193 420 475.5> 270 36<160.095 203.815> 424 34<1005.71 1062.99> 672 58<149.222 276.857 493.823 560.037 791.684 877.5>
VStem: 34 43<482.32 608.599> 206 58<309.613 368.5> 336 110<167.479 561.362> 601 110<144.453 599.116> 818 110<42.1741 327.86>
LayerCount: 2
Fore
SplineSet
264 358 m 0x9fe0
 264 335 253 315 230 297 c 0
 207 279 188 270 171 270 c 0
 161 270 156 275 156 285 c 0
 156 292 158 297 160 299 c 0
 162 301 166 304 173 306 c 0
 195 311 206 320 206 332 c 256
 206 344 199 352 186 357 c 0
 84 391 34 445 34 519 c 0
 34 571 53 620 93 664 c 0
 133 708 180 730 236 730 c 0
 276 730 310 719 341 697 c 0
 372 675 394 644 409 607 c 1
 419 605 l 1
 435 640 454 670 478 694 c 0
 502 718 526 730 551 730 c 0
 584 730 612 718 637 693 c 0
 662 668 679 640 688 607 c 1
 698 605 l 1
 717 642 742 673 773 696 c 0
 804 719 833 730 859 730 c 0
 896 730 926 713 949 679 c 0
 972 645 985 601 989 547 c 0
 991 513 997 489 1004 477 c 0
 1011 465 1023 458 1040 458 c 0
 1055 458 1063 452 1063 441 c 256
 1063 430 1055 424 1040 424 c 0
 1011 424 989 419 971 408 c 0
 942 391 928 353 928 295 c 2
 928 111 l 2
 928 64 938 40 959 40 c 0
 971 40 983 47 997 60 c 0x7fe0
 1008 71 1017 77 1022 77 c 0x9fe0
 1031 77 1035 72 1035 61 c 0
 1035 45 1020 28 990 10 c 0
 960 -8 933 -18 908 -18 c 0x5fe0
 889 -18 868 -9 848 11 c 0
 828 31 818 54 818 80 c 2
 818 214 l 2
 818 279 833 330 863 368 c 0
 892 404 931 427 978 436 c 1
 978 443 l 1
 930 459 902 492 894 540 c 0
 881 628 856 672 821 672 c 0
 794 672 770 655 746 621 c 0
 722 587 711 550 711 509 c 2
 711 255 l 2
 711 181 685 115 634 56 c 0
 613 31 593 12 572 0 c 0
 551 -12 527 -18 500 -18 c 0x9fe0
 484 -18 471 -6 461 17 c 0
 449 46 437 60 423 60 c 0
 417 60 409 52 397 36 c 0
 389 25 380 19 371 19 c 0
 361 19 356 25 356 38 c 0
 356 50 370 73 398 106 c 0
 426 139 449 155 466 155 c 0x3fe0
 485 155 501 139 515 106 c 0
 522 87 536 77 557 77 c 0
 586 77 601 132 601 241 c 2
 601 536 l 2
 601 563 593 592 577 624 c 0
 561 656 541 672 516 672 c 0
 502 672 485 660 468 636 c 0
 451 612 439 587 433 563 c 1
 441 528 446 496 446 468 c 2
 446 257 l 2
 446 196 413 128 348 56 c 0
 325 31 304 12 285 0 c 0
 266 -12 243 -18 217 -18 c 0x9fe0
 202 -18 190 -6 180 17 c 0
 169 46 156 60 143 60 c 0
 137 60 129 52 118 36 c 0
 110 25 102 19 93 19 c 0
 83 19 78 25 78 38 c 0
 78 50 92 73 119 106 c 0
 146 139 168 155 184 155 c 0x3fe0
 202 155 217 139 230 106 c 0
 236 87 250 77 270 77 c 0
 289 77 305 94 317 130 c 0
 329 166 336 203 336 241 c 2
 336 508 l 2
 336 554 325 594 302 625 c 0
 279 656 248 672 209 672 c 0
 173 672 142 660 116 636 c 0
 90 612 77 582 77 547 c 0
 77 505 94 476 130 459 c 2
 224 411 l 2
 251 397 264 379 264 358 c 0x9fe0
EndSplineSet
Validated: 1
EndChar

StartChar: u1D513
Encoding: 120083 120083 846
Width: 844
GlyphClass: 2
Flags: W
HStem: -238 21G<385 403> -18 58<540.322 667.914> 88 96<241.835 340.063> 489 35<747.595 804.994> 672 58<154.32 282.131 513.647 594.437>
VStem: 39 43<483.828 607.759> 211 58<306.231 367> 341 110<-178.658 24 175 562.592> 569 90<360.562 419.263> 727 80<118.35 201.999>
DStem2: 787 262 587 312 0.732019 -0.681285<-190.481 30.7296>
LayerCount: 2
Fore
SplineSet
623 40 m 0
 644 40 666 51 691 72 c 0
 716 93 727 120 727 152 c 0
 727 161 723 172 715 187 c 0
 707 202 697 213 686 221 c 2
 587 312 l 2
 575 332 569 352 569 372 c 0
 569 411 614 452 702 496 c 1
 698 502 l 1
 673 510 655 522 643 538 c 0
 631 554 623 576 617 601 c 0
 608 648 582 672 538 672 c 0
 522 672 503 662 483 642 c 0
 463 622 448 596 439 564 c 1
 447 534 451 502 451 469 c 2
 451 109 l 1
 491 86 525 68 551 57 c 0
 577 46 601 40 623 40 c 0
597 -18 m 0
 545 -18 496 -4 450 24 c 1
 450 -34 445 -91 435 -150 c 0
 425 -209 412 -238 394 -238 c 256
 376 -238 363 -204 354 -137 c 0
 345 -70 341 -9 341 47 c 2
 341 71 l 1
 316 82 292 88 269 88 c 0
 239 88 216 79 201 59 c 0
 195 49 188 43 179 43 c 0
 172 43 168 45 167 48 c 0
 166 51 165 56 165 64 c 0
 165 79 181 104 212 136 c 0
 243 168 272 184 300 184 c 0
 312 184 326 181 341 175 c 1
 341 508 l 2
 341 554 330 594 307 625 c 0
 284 656 254 672 215 672 c 0
 179 672 148 660 122 636 c 0
 96 612 82 581 82 546 c 0
 82 505 100 476 136 458 c 2
 230 409 l 2
 257 396 269 378 269 356 c 0
 269 333 259 313 236 295 c 0
 213 277 193 268 176 268 c 0
 166 268 162 273 162 283 c 256
 162 293 168 300 180 304 c 0
 201 308 211 317 211 330 c 0
 211 343 205 350 192 355 c 0
 90 389 39 444 39 518 c 0
 39 571 59 620 99 664 c 0
 139 708 185 730 241 730 c 0
 281 730 316 719 347 697 c 0
 378 675 400 644 415 607 c 1
 425 606 l 1
 443 645 467 675 497 697 c 0
 527 719 554 730 579 730 c 0
 617 730 649 719 674 695 c 0
 699 671 715 642 722 607 c 0
 731 567 741 544 754 536 c 0
 766 528 776 524 784 524 c 0
 798 524 805 518 805 506 c 256
 805 494 797 489 783 489 c 0
 754 489 733 485 721 478 c 0
 680 452 659 427 659 405 c 0
 659 385 668 369 686 356 c 2
 787 262 l 2
 800 239 807 215 807 192 c 0
 807 146 782 100 732 53 c 0
 682 6 638 -18 597 -18 c 0
EndSplineSet
Validated: 1
EndChar

StartChar: u1D516
Encoding: 120086 120086 847
Width: 806
GlyphClass: 2
Flags: W
HStem: -18 110<321.373 553.323> 270 105<338.959 444.61> 357 105<522.393 657.869> 487 30<342.73 414.296> 558 105<527.875 653.706> 635 95<280 447.143>
VStem: 74 80<268.789 497.28> 263 67<384.407 467.904> 680 26<688.036 729.817> 688 53<195.945 330.21>
LayerCount: 2
Fore
SplineSet
379 730 m 0xb740
 420 730 464 718 514 693 c 0
 545 673 572 663 595 663 c 0x9b40
 629 663 653 671 667 687 c 0
 671 692 676 701 680 715 c 0
 684 725 687 730 691 730 c 0x9780
 700 730 706 720 706 700 c 0
 706 663 695 631 674 602 c 0
 653 573 626 558 592 558 c 0x9b80
 559 558 521 571 476 597 c 0
 436 623 401 635 372 635 c 0
 308 635 256 615 215 574 c 0
 174 533 154 477 154 408 c 0
 154 354 161 307 177 265 c 0
 193 223 213 190 240 166 c 0
 267 142 296 123 328 111 c 0
 360 99 394 92 429 92 c 0
 509 92 572 109 618 144 c 0
 664 179 688 220 688 269 c 0
 688 328 652 357 582 357 c 0xb740
 557 357 528 343 494 314 c 0
 453 285 416 270 381 270 c 0
 348 270 320 282 297 305 c 0
 274 328 263 358 263 395 c 0
 263 427 273 455 294 480 c 0
 315 505 338 517 365 517 c 0
 385 517 404 510 422 498 c 1
 414 479 l 1
 401 485 385 487 368 487 c 0
 357 487 348 482 341 470 c 0
 334 458 330 446 330 433 c 0
 330 395 349 375 387 375 c 0xd340
 411 375 438 389 469 415 c 0
 494 430 514 440 527 444 c 0
 541 456 560 462 585 462 c 0
 630 462 666 443 696 406 c 0
 726 369 741 320 741 258 c 0
 741 187 711 122 652 66 c 0
 593 10 520 -18 434 -18 c 0
 332 -18 247 17 178 86 c 0
 109 155 74 249 74 368 c 0
 74 463 105 547 167 620 c 0
 229 693 300 730 379 730 c 0xb740
EndSplineSet
Validated: 1
EndChar

StartChar: dotlessi
Encoding: 305 305 849
Width: 566
Flags: W
HStem: 0 46<52 230 334 514> 410 46<70 230>
VStem: 230 104<46 410>
AnchorPoint: "Bottom" 282 0 basechar 0
AnchorPoint: "Top" 279 543 basechar 0
LayerCount: 2
Fore
SplineSet
52 0 m 5
 52 46 l 5
 209 46 l 6
 223 46 230 53 230 67 c 6
 230 389 l 6
 230 403 223 410 209 410 c 6
 70 410 l 5
 70 456 l 5
 334 456 l 5
 334 68 l 6
 334 53 341 46 355 46 c 6
 514 46 l 5
 514 0 l 5
 52 0 l 5
EndSplineSet
Validated: 1
EndChar

StartChar: oslash
Encoding: 248 248 857
Width: 566
UnlinkRmOvrlpSave: 1
Flags: W
HStem: -12 46<235.263 348.982> 0 21G<46 126.684> 422 46<235.263 348.982> 436 20G<453.316 534>
VStem: 58.2 128<123.923 332.077> 398.2 128<123.923 332.077>
DStem2: 46 0 108 0 0.682661 0.730735<42.325 624.029>
LayerCount: 2
Fore
SplineSet
108 0 m 1x5c
 46 0 l 1
 472 456 l 1
 534 456 l 1
 108 0 l 1x5c
EndSplineSet
Refer: 82 111 N 1 0 0 1 9.2 0 2
EndChar

StartChar: Oslash
Encoding: 216 216 858
Width: 566
UnlinkRmOvrlpSave: 1
Flags: W
HStem: -18 46<220.681 345.319> 0 21G<41 108.918> 684 46<220.681 345.319> 710 20G<464.082 532>
VStem: 14 128<183.699 528.301> 424 128<183.699 528.301>
DStem2: 41 0 97 0 0.511898 0.859046<28.6663 849.779>
LayerCount: 2
Fore
SplineSet
97 0 m 5x5c
 41 0 l 5
 476 730 l 5
 532 730 l 5
 97 0 l 5x5c
EndSplineSet
Refer: 50 79 S 1 0 0 1 0 0 2
EndChar

StartChar: brokenbar
Encoding: 166 166 865
Width: 566
Flags: W
HStem: 710 20G<252 314>
VStem: 252 62<-198 150 382 730>
LayerCount: 2
Fore
SplineSet
252 150 m 1
 314 150 l 1
 314 -198 l 1
 252 -198 l 1
 252 150 l 1
252 730 m 5
 314 730 l 5
 314 382 l 5
 252 382 l 5
 252 730 l 5
EndSplineSet
Validated: 1
EndChar

StartChar: section
Encoding: 167 167 866
Width: 566
Flags: W
HStem: -194 37<236.775 331.455> 668 37<233.836 329.578>
VStem: 60 70<239 308.786> 127 85<538.533 626.264> 130 103<-141.059 -61.4035> 333 103<574.002 653.712> 353 85<-123.069 -28.0963> 444 62<189.143 267>
DStem2: 170 262 150 120 0.786992 -0.616963<-52.4163 217.591> 277 502 216 396 0.804269 -0.594265<-89.8418 13.9317 30.2871 289.281>
LayerCount: 2
Fore
SplineSet
277 -157 m 0xcb
 318 -157 353 -132 353 -93 c 0
 353 -71 348 -53 339 -38 c 0
 330 -23 311 -6 290 10 c 2
 150 120 l 1
 120 141 97 160 82 180 c 0
 67 200 60 225 60 253 c 0xe3
 60 304 112 351 216 396 c 1
 157 437 127 487 127 544 c 0
 127 592 144 632 179 661 c 0
 214 690 255 705 300 705 c 0
 367 705 436 658 436 597 c 0
 436 562 409 537 369 537 c 0
 336 537 306 556 306 581 c 0
 306 604 314 610 326 620 c 0
 331 625 333 631 333 638 c 0
 333 658 319 668 289 668 c 0
 248 668 212 644 212 602 c 0xd5
 212 571 228 541 246 525 c 0
 253 519 263 512 277 502 c 2
 418 398 l 2
 451 376 474 354 487 333 c 0
 500 312 506 284 506 250 c 0
 506 195 455 143 354 92 c 1
 409 48 438 0 438 -50 c 0
 438 -94 419 -130 386 -155 c 0
 353 -180 313 -194 266 -194 c 0
 199 -194 130 -145 130 -84 c 0
 130 -48 156 -26 199 -26 c 0
 230 -26 260 -45 260 -68 c 0
 260 -85 254 -98 242 -108 c 0
 236 -113 233 -119 233 -127 c 0
 233 -149 257 -157 277 -157 c 0xcb
332 135 m 1
 363 147 444 180 444 214 c 0
 444 235 430 246 396 263 c 1
 239 379 l 1
 167 349 130 324 130 304 c 0
 130 287 142 274 170 262 c 2
 310 152 l 1
 332 135 l 1
EndSplineSet
Validated: 1
EndChar

StartChar: degree
Encoding: 176 176 867
Width: 566
Flags: W
HStem: 489 43<355.094 442.906> 661 43<354.627 443.373>
VStem: 292 48<546.31 646.689> 458 48<546.31 646.689>
LayerCount: 2
Fore
SplineSet
399 489 m 0
 340 489 292 538 292 598 c 0
 292 657 340 704 399 704 c 0
 458 704 506 657 506 598 c 0
 506 538 458 489 399 489 c 0
399 532 m 0
 432 532 458 560 458 597 c 0
 458 634 432 661 399 661 c 0
 366 661 340 634 340 597 c 0
 340 560 366 532 399 532 c 0
EndSplineSet
Validated: 1
EndChar

StartChar: exclamdown
Encoding: 161 161 869
Width: 566
Flags: W
HStem: 325 181<222.411 345.589>
VStem: 183 180<-222.518 -57.8105> 194 180<353.422 477.589> 271 30<234.25 283>
LayerCount: 2
Fore
SplineSet
271 283 m 5x90
 301 283 l 5x90
 321 88 l 6
 324 63 330 20 343 -37 c 4
 356 -94 363 -139 363 -171 c 4
 363 -218 333 -241 273 -241 c 260
 213 -241 183 -218 183 -171 c 4xc0
 183 -139 194 -94 211 -37 c 4
 228 20 239 63 243 88 c 6
 271 283 l 5x90
284 506 m 260
 310 506 331 499 349 481 c 4
 367 463 374 442 374 416 c 260
 374 390 367 368 349 350 c 4
 331 332 310 325 284 325 c 260
 258 325 237 332 219 350 c 4
 201 368 194 390 194 416 c 260xa0
 194 442 201 463 219 481 c 4
 237 499 258 506 284 506 c 260
EndSplineSet
Validated: 1
EndChar

StartChar: cent
Encoding: 162 162 870
Width: 566
UnlinkRmOvrlpSave: 1
Flags: W
HStem: -12 46<232.869 411.342> 425 43<234.138 446.456>
VStem: 50 128<123.345 333.373> 275 62<-138 598> 459 67<308 401.563> 483 42<100.861 147>
LayerCount: 2
Fore
SplineSet
275 598 m 5xf0
 337 598 l 5
 337 -138 l 1
 275 -138 l 1
 275 598 l 5xf0
292 -12 m 0
 214 -12 154 12 113 58 c 0
 72 104 50 161 50 228 c 256
 50 295 71 352 113 398 c 0
 158 444 220 468 300 468 c 0
 438 468 526 439 526 320 c 0
 526 296 520 277 508 264 c 0
 496 251 482 245 465 245 c 0
 447 245 434 251 422 264 c 0
 410 277 404 291 404 309 c 0
 404 343 417 366 442 377 c 0
 454 379 459 383 459 389 c 0xf8
 459 417 373 425 311 425 c 0
 195 425 178 333 178 229 c 256
 178 132 193 34 306 34 c 0
 407 34 469 76 483 147 c 1
 525 147 l 1xf4
 506 40 415 -12 292 -12 c 0
EndSplineSet
EndChar

StartChar: sterling
Encoding: 163 163 871
Width: 566
Flags: W
HStem: -18 83<317.936 473.345> -12 41<56.3483 143.774> 129 41<57.8201 149.412> 311 46<302.352 419.989> 352 46<67.5793 185.773> 654 46<343.597 476.021>
VStem: 3 46<36.0364 121.688> 186 115<221.183 322 386 554.969> 196 105<164.348 320.748> 483 78<556.5 643.676> 543 22<150.75 175.909>
LayerCount: 2
Fore
SplineSet
203 73 m 1xb720
 182 41 139 -12 98 -12 c 0
 46 -12 3 15 3 72 c 0
 3 127 49 170 91 170 c 0
 121 170 153 155 188 125 c 1
 193 150 196 182 196 220 c 0x66a0
 196 245 193 285 189 341 c 1
 157 348 138 352 130 352 c 0
 94 352 83 341 60 325 c 1
 46 364 l 1
 65 387 91 398 122 398 c 0
 134 398 155 394 187 386 c 1
 186 395 186 411 186 435 c 0
 186 509 206 572 245 623 c 1
 291 674 345 700 408 700 c 0
 493 700 561 667 561 578 c 0
 561 535 541 503 494 503 c 0
 463 503 439 522 439 548 c 0
 439 568 446 582 462 590 c 0
 475 598 483 599 483 617 c 0
 483 642 447 654 408 654 c 0
 329 654 301 592 301 500 c 2x6f40
 301 367 l 1x6e80
 327 361 345 357 357 357 c 0
 382 357 399 363 414 374 c 2
 427 384 l 1
 439 345 l 1
 422 322 397 311 364 311 c 0
 354 311 333 315 301 322 c 1
 301 271 l 2
 301 204 281 149 241 106 c 1
 295 79 360 65 437 65 c 0
 493 65 532 128 543 180 c 1
 565 174 l 1
 543 46 486 -18 394 -18 c 0
 352 -18 288 12 203 73 c 1xb720
91 129 m 0
 68 129 49 106 49 78 c 0
 49 45 66 29 102 29 c 0
 134 29 161 65 173 92 c 1
 150 108 128 129 91 129 c 0
EndSplineSet
Validated: 1
EndChar

StartChar: currency
Encoding: 164 164 872
Width: 566
Flags: W
HStem: 118 60<201.092 364.908> 507 60<202.851 363.149>
VStem: 66 60<265.971 417.476> 440 60<266.302 416.262>
DStem2: 88 590 42 544 0.697466 -0.716618<0.881009 102.002 524.281 625.14> 42 141 88 95 0.697466 0.716618<0 101.121 523.4 624.259>
LayerCount: 2
Fore
SplineSet
283 178 m 0
 328 178 365 193 395 224 c 0
 425 255 440 294 440 342 c 0
 440 390 425 428 395 460 c 0
 365 491 328 507 283 507 c 0
 238 507 201 491 171 460 c 0
 141 428 126 390 126 342 c 0
 126 294 141 255 171 224 c 0
 201 193 238 178 283 178 c 0
283 118 m 0
 236 118 194 134 158 167 c 1
 88 95 l 1
 42 141 l 1
 123 224 l 1
 85 258 66 297 66 341 c 0
 66 385 85 426 124 460 c 1
 42 544 l 1
 88 590 l 1
 158 518 l 1
 194 551 236 567 283 567 c 0
 330 567 372 551 408 517 c 1
 479 590 l 1
 524 543 l 1
 442 459 l 1
 481 425 500 385 500 341 c 0
 500 297 481 259 443 225 c 1
 524 142 l 1
 479 95 l 1
 408 168 l 1
 372 134 330 118 283 118 c 0
EndSplineSet
Validated: 1
EndChar

StartChar: yen
Encoding: 165 165 873
Width: 566
UnlinkRmOvrlpSave: 1
Flags: W
HStem: 0 46<159 246.764 352.588 442> 180 52<41 532> 305 53<41 532> 666 46<28 89.5493 193.003 243 371 419.742 485.169 538>
VStem: 247 105<46.4258 322>
DStem2: 315 394 352 367 0.417326 0.908757<0 265.906>
AnchorPoint: "Bottom" 302 0 basechar 0
AnchorPoint: "Top" 305 762 basechar 0
LayerCount: 2
Fore
SplineSet
41 180 m 1
 41 232 l 1
 532 232 l 1
 532 180 l 1
 41 180 l 1
41 305 m 1
 41 358 l 1
 532 358 l 1
 532 305 l 1
 41 305 l 1
208 666 m 2
 197 666 193 659 193 649 c 0
 193 642 196 633 200 624 c 2
 315 394 l 1
 405 589 l 2
 414 609 420 626 420 639 c 0
 420 656 413 666 394 666 c 2
 371 666 l 1
 371 712 l 1
 538 712 l 1
 538 666 l 1
 533 666 l 2
 497 666 480 646 459 600 c 2
 352 367 l 1
 352 75 l 2
 352 55 362 46 380 46 c 2
 442 46 l 1
 442 0 l 1
 159 0 l 1
 159 46 l 1
 221 46 l 2
 238 46 247 55 247 72 c 2
 247 322 l 1
 100 626 l 2
 84 660 69 666 46 666 c 2
 28 666 l 1
 28 712 l 1
 243 712 l 1
 243 666 l 1
 208 666 l 2
EndSplineSet
EndChar

StartChar: dieresis
Encoding: 168 168 874
Width: 566
Flags: W
HStem: 519 151<115.705 222.294 343.706 450.295>
VStem: 94 150<540.706 648.295> 322 150<540.706 648.295>
LayerCount: 2
Fore
SplineSet
398 670 m 260
 419 670 436 664 451 649 c 4
 466 634 472 616 472 595 c 260
 472 574 466 555 451 540 c 4
 436 525 419 519 398 519 c 260
 377 519 358 525 343 540 c 4
 328 555 322 574 322 595 c 260
 322 616 328 634 343 649 c 4
 358 664 377 670 398 670 c 260
168 670 m 256
 189 670 208 664 223 649 c 0
 238 634 244 616 244 595 c 256
 244 574 238 555 223 540 c 0
 208 525 189 519 168 519 c 256
 147 519 130 525 115 540 c 0
 100 555 94 574 94 595 c 256
 94 616 100 634 115 649 c 0
 130 664 147 670 168 670 c 256
EndSplineSet
Validated: 1
EndChar

StartChar: copyright
Encoding: 169 169 875
Width: 566
Flags: W
HStem: 68 41<191.22 374.78> 164 40<257.616 350.966> 498 42<256.898 342.981> 602 41<191.22 374.78>
VStem: 4 43<256.609 455.243> 132 93<250.272 447.193> 383 27<398 443.999 502.011 534> 519 43<256.609 455.243>
DStem2: 382 299 417 298 0.196116 0.980581<-81.326 4.11844>
LayerCount: 2
Fore
SplineSet
47 356 m 0
 47 223 151 109 283 109 c 0
 415 109 519 223 519 356 c 0
 519 489 415 602 283 602 c 0
 151 602 47 489 47 356 c 0
4 356 m 0
 4 514 125 643 283 643 c 0
 441 643 562 514 562 356 c 0
 562 198 441 68 283 68 c 0
 125 68 4 198 4 356 c 0
371 502 m 0
 377 502 383 517 383 529 c 2
 383 534 l 1
 410 534 l 1
 410 398 l 1
 384 398 l 1
 384 402 l 2
 380 442 341 498 302 498 c 0
 252 498 225 448 225 342 c 0
 225 279 242 204 300 204 c 0
 354 204 377 248 382 299 c 2
 383 303 l 1
 418 303 l 1
 417 298 l 2
 413 228 371 164 294 164 c 0
 194 164 132 247 132 342 c 0
 132 449 188 540 294 540 c 0
 320 540 335 527 347 516 c 0
 356 508 362 502 371 502 c 0
EndSplineSet
Validated: 1
EndChar

StartChar: guillemotleft
Encoding: 171 171 876
Width: 566
Flags: W
VStem: 137 83<136.11 320.151> 304 70<131.688 320.586>
DStem2: 427 64 335 114 0.6 -0.8<-104.442 5>
LayerCount: 2
Fore
SplineSet
304 226 m 0
 304 269 315 304 335 338 c 0
 355 371 379 399 403 416 c 2
 406 419 l 1
 430 393 l 1
 427 389 l 2
 393 346 374 291 374 226 c 0
 374 161 393 107 427 64 c 2
 430 60 l 1
 404 36 l 1
 403 37 l 2
 379 54 355 81 335 114 c 0
 315 148 304 183 304 226 c 0
137 228 m 0
 137 273 150 314 178 350 c 0
 204 385 234 415 268 434 c 2
 272 436 l 1
 291 414 l 1
 288 410 l 2
 243 366 220 306 220 227 c 0
 220 148 243 89 288 45 c 2
 291 41 l 1
 272 19 l 1
 268 21 l 2
 234 40 204 70 178 105 c 0
 150 141 137 183 137 228 c 0
EndSplineSet
Validated: 1
EndChar

StartChar: guillemotright
Encoding: 187 187 877
Width: 566
Flags: W
VStem: 192 70<133.191 318.809> 346 83<136.11 320.151>
LayerCount: 2
Fore
SplineSet
429 228 m 0
 429 183 416 141 388 105 c 0
 362 70 332 40 298 21 c 2
 294 19 l 1
 275 41 l 1
 278 45 l 2
 323 89 346 148 346 227 c 0
 346 306 323 366 278 410 c 2
 275 414 l 1
 294 436 l 1
 298 434 l 2
 332 415 362 385 388 350 c 0
 416 314 429 273 429 228 c 0
262 226 m 0
 262 184 251 149 231 116 c 0
 211 84 187 57 163 40 c 2
 160 36 l 1
 136 62 l 1
 139 66 l 2
 173 109 192 162 192 226 c 0
 192 290 173 343 139 386 c 2
 136 390 l 1
 157 419 l 1
 163 413 l 2
 187 396 211 368 231 336 c 0
 251 303 262 268 262 226 c 0
EndSplineSet
Validated: 1
EndChar

StartChar: questiondown
Encoding: 191 191 878
Width: 566
Flags: W
HStem: -238 38<234.241 396.282> -111 124<388.473 448.672> 222 38<238.669 359.821> 288 180<223.422 346.601>
VStem: 56 128<-155.504 -37.5745> 190 32<153.28 205.648> 196 180<317.275 438.725> 368 44<133.672 213.362> 452 58<-150.179 -68>
LayerCount: 2
Fore
SplineSet
301 -238 m 0xfd80
 233 -238 174 -226 127 -202 c 0
 80 -178 56 -144 56 -101 c 0
 56 -82 60 -64 71 -47 c 0
 82 -30 99 -15 121 0 c 0
 143 15 161 27 178 36 c 0
 195 45 219 57 250 71 c 0
 328 107 368 144 368 179 c 0
 368 208 345 222 298 222 c 0
 276 222 256 218 242 209 c 0
 228 200 222 188 222 173 c 0
 222 165 223 160 227 155 c 1
 193 149 l 1
 191 159 190 168 190 178 c 0
 190 201 201 221 223 236 c 0
 245 251 271 260 297 260 c 0
 331 260 358 254 379 241 c 0
 400 228 412 210 412 187 c 0
 412 169 407 154 397 141 c 0
 387 128 374 113 353 97 c 2
 258 23 l 2
 234 3 214 -14 202 -31 c 0
 190 -48 184 -68 184 -90 c 0
 184 -122 195 -148 218 -169 c 0
 241 -190 272 -200 316 -200 c 0
 351 -200 384 -194 411 -181 c 0
 438 -168 452 -154 452 -138 c 0
 452 -126 450 -117 446 -114 c 0
 443 -112 439 -111 436 -111 c 0
 431 -111 429 -111 427 -112 c 0
 422 -114 417 -115 409 -115 c 0
 398 -115 390 -109 383 -98 c 0
 376 -87 373 -73 373 -57 c 0
 373 -37 378 -20 388 -7 c 0
 398 6 414 13 434 13 c 0
 455 13 471 4 486 -13 c 0
 501 -30 510 -53 510 -83 c 0
 510 -127 487 -163 444 -193 c 0
 401 -223 354 -238 301 -238 c 0xfd80
286 468 m 256
 312 468 332 461 350 443 c 0
 368 425 376 404 376 378 c 256
 376 352 368 331 350 313 c 0
 332 295 312 288 286 288 c 256
 260 288 238 295 220 313 c 0
 202 331 196 352 196 378 c 256xfa80
 196 404 202 425 220 443 c 0
 238 461 260 468 286 468 c 256
EndSplineSet
Validated: 1
EndChar

StartChar: macron
Encoding: 175 175 879
Width: 566
Flags: W
HStem: 236 52<53 513>
LayerCount: 2
Fore
SplineSet
53 236 m 5
 53 288 l 5
 513 288 l 5
 513 236 l 5
 53 236 l 5
EndSplineSet
Validated: 1
EndChar

StartChar: multiply
Encoding: 215 215 880
Width: 566
Flags: W
DStem2: 67 566 23 519 0.64832 -0.761368<7.25819 333.425 407.277 734.205> 23 8 67 -39 0.64832 0.761368<0 326.166 400.019 726.947>
LayerCount: 2
Fore
SplineSet
67 -39 m 1
 23 8 l 1
 241 264 l 1
 23 519 l 1
 67 566 l 1
 283 312 l 1
 499 566 l 1
 543 520 l 1
 324 264 l 1
 543 7 l 1
 499 -39 l 1
 283 215 l 1
 67 -39 l 1
EndSplineSet
Validated: 1
EndChar

StartChar: cedilla
Encoding: 184 184 881
Width: 566
Flags: W
HStem: -218 38<210.572 291.694>
VStem: 302 86<-171.248 -89.6649>
AnchorPoint: "Bottom" 275 4 mark 0
LayerCount: 2
Fore
SplineSet
388 -144 m 0
 388 -198 329 -218 268 -218 c 0
 233 -218 196 -193 178 -172 c 1
 189 -156 l 1
 202 -169 221 -180 246 -180 c 0
 278 -180 302 -165 302 -130 c 0
 302 -113 300 -101 293 -93 c 0
 279 -78 245 -73 222 -70 c 1
 246 4 l 1
 285 4 l 1
 267 -51 l 1
 289 -55 l 2
 341 -65 388 -89 388 -144 c 0
EndSplineSet
Validated: 1
EndChar

StartChar: acute
Encoding: 180 180 882
Width: 566
Flags: W
HStem: 466 258
VStem: 206 154
AnchorPoint: "TopMark" 228 764 basemark 0
AnchorPoint: "TopMark" 228 466 mark 0
AnchorPoint: "Top" 228 466 mark 0
LayerCount: 2
Fore
SplineSet
335 724 m 0
 352 724 360 709 360 679 c 0
 360 656 352 635 335 615 c 2
 217 466 l 1
 206 482 l 1
 290 677 l 2
 304 708 319 724 335 724 c 0
EndSplineSet
Validated: 1
EndChar

StartChar: logicalnot
Encoding: 172 172 883
Width: 566
Flags: W
HStem: 356 52<64 440>
VStem: 440 62<178 356>
LayerCount: 2
Fore
SplineSet
64 356 m 5
 64 408 l 5
 502 408 l 5
 502 178 l 5
 440 178 l 5
 440 356 l 5
 64 356 l 5
EndSplineSet
Validated: 1
EndChar

StartChar: paragraph
Encoding: 182 182 884
Width: 566
Flags: W
HStem: 660 52<312 413 475 534>
VStem: 37 275<462.725 624.028> 250 62<-165 377> 413 62<-165 660>
LayerCount: 2
Fore
SplineSet
534 712 m 1xd0
 534 660 l 1
 475 660 l 1
 475 -165 l 1
 413 -165 l 1
 413 660 l 1
 312 660 l 1
 312 -165 l 1
 250 -165 l 1
 250 377 l 1xb0
 188 377 137 392 97 422 c 0
 57 452 37 490 37 539 c 0
 37 588 54 630 90 663 c 0
 126 696 171 712 224 712 c 2
 534 712 l 1xd0
EndSplineSet
Validated: 1
EndChar
